<svg xmlns="http://www.w3.org/2000/svg" width="300" height="300" version="1.0" viewBox="0 0 1600 1600"><rect width="100%" height="100%" fill="#1D1D1D"/><g fill="#838383"><path d="M46 20v19l-3 1c-4 2-9 7-10 12-3 9 3 19 14 21 6 2 16-3 19-10 3-8-2-20-10-23-2-1-2-3-2-20V0h-8v20zm10 30c4 4 4 10-1 13-5 4-11 2-13-3-4-10 7-17 14-10zM99 20v19l-3 1c-10 4-13 18-7 26 8 11 23 10 30-2V48c-2-3-6-7-9-8l-3-1V0h-8v20zm10 30c6 5 3 15-6 15-7 0-11-7-8-13 2-5 9-6 14-2zM152 46v46l-3 1c-10 5-13 18-6 27 10 10 26 7 30-7 3-7-2-16-9-20l-4-2V0h-8v46zm11 56c5 5 2 14-5 15-6 2-12-5-11-10 2-8 11-10 16-5zM232 18l18 18v103l-4 2c-11 6-12 22-2 29 6 4 11 5 17 2 12-6 14-20 5-28l-6-5h-2V33l-16-17-16-16h-12l18 18zm27 130c8 5 5 17-5 17-6 0-11-7-8-13 3-5 8-6 13-4zM312 45l45 45v25c0 22 0 24-2 25-3 1-8 5-10 9-2 5-1 12 1 16 8 11 22 11 30 0 2-4 3-12 1-17-2-3-7-8-10-9-2 0-2-1-2-26V87l-43-44-43-43h-12l45 45zm53 103c4 2 5 4 5 8 0 8-9 12-15 6-7-7 1-19 10-14zM291 1l7 9c8 4 16 3 22-3 5-5 5-7 0-7l-7 2-5 2-6-2c-3-2-11-3-11-1zM532 9l-9 9H365l-2-4c-7-13-26-12-31 2-7 16 14 30 27 18l5-6v-2h162l13-13 13-13h-11l-9 9zm-178 6c4 4 3 12-2 15-4 1-6 1-9-1-5-3-6-10-1-14 3-3 8-3 12 0zM666 14c-13 14-14 14-16 13-9-3-19 1-23 10-3 9 1 18 10 23 13 5 28-10 23-23l-2-3 17-17 17-17h-11l-15 14zm-17 23c7 6 3 15-6 15-3 0-4-1-6-3-3-3-3-4-3-7 1-4 5-8 9-8l6 3zM1130 2c-2 3-1 10 1 13 4 6 9 9 16 9 11-1 18-11 16-21 0-3-1-3-5-3-5 0-5 0-4 2 2 4 1 9-2 11-6 5-14 2-14-6V2c1-2 1-2-3-2-3 0-5 0-5 2zM1212 1c-8 4-11 10-11 17l1 7c0 1-10 13-34 37-32 31-35 35-37 34-3-2-11-2-15 0-13 7-13 25 0 32 7 3 18 0 22-6 3-4 4-12 2-16l-1-3 35-35c28-28 35-35 37-35 5 2 9 2 14 0 13-5 14-25 1-31-5-2-10-3-15-1zm10 8c3 2 5 5 5 9 0 6-7 11-13 8-7-4-7-13 0-16 3-2 3-2 7-1zm-92 97c4 4 4 8 0 12-6 6-15 2-15-6 0-9 10-12 15-6z"/><path d="M1256 21v20l-56 56-56 56-4-1c-18-5-30 16-18 29 3 3 8 5 13 5 10 0 19-10 17-20l-1-5c0-1 19-22 56-59l57-57V0h-8v21zm-115 142c3 3 4 6 1 10-3 6-12 6-15-1-2-3-2-6 1-9 4-5 9-5 13 0zM1288 91l-91 90v75l-112 112-112 112-3-1c-10-3-21 2-23 13-2 8 2 16 9 19 15 7 29-7 24-22l-1-3 113-113 113-113v-76l92-92 92-92h-11l-90 91zM967 487c2 0 6 5 6 8 0 4-1 7-5 9-6 3-13-2-13-9l2-6c3-2 6-3 8-2h2zM1499 17v17l50 50 51 50v-11l-46-46-47-47V0h-8v17zM1578 20v20h-2c-3 1-7 5-10 9-2 5-1 13 3 18s7 6 14 6c6 0 11-3 14-8 5-9 1-21-7-24l-4-1V0h-8v20zm10 30c3 3 4 7 2 11-1 2-6 5-9 5s-8-5-8-8c-2-9 9-14 15-8zM1043 33c-5 2-9 5-11 9l-2 4H820l-27 26-26 27H504l-1-4c-3-7-13-11-21-8-5 1-11 8-11 13-2 9 4 18 12 20l6 1 4-1c4-1 9-6 10-10l2-3h264l27-27 27-26h208l1 3 6 7c3 2 4 2 10 2 8 0 12-2 15-8 5-10 0-22-11-25h-10zm12 11c2 3 2 4 2 7-1 4-4 7-8 8-5 1-10-3-10-9 0-9 10-12 16-6zM494 97l3 6c0 4-5 9-9 9-9 0-12-13-4-17 3-2 7-1 10 2zM1441 47c-5 1-11 7-12 12 0 3 0 8 2 13 0 1-9 11-51 52l-51 51-3-1c-6-2-10-2-15 0-11 6-13 19-4 28 7 6 16 7 23 0 5-4 6-9 6-16l-1-6 51-51c47-47 52-51 54-50h13c5-2 9-7 10-12 4-13-10-25-22-20zm12 10c3 3 3 9-1 12-4 4-8 4-12 0s-4-10 1-14c3-2 9-1 12 2zm-131 124c3 1 6 5 6 9 0 2-3 7-6 8-4 2-9 0-11-5-3-4-1-10 5-12h6z"/><path d="M986 88c-3 2-5 4-6 7l-2 4H820l-27 26-27 27H451l-1-3-6-7c-3-2-4-3-10-3-5 0-6 1-9 3-7 5-9 11-8 18 2 7 10 14 17 14s15-6 17-12l160-1 159-1 27-26 26-27h154l2 4c3 5 6 8 12 9 12 3 23-8 21-20-1-5-6-10-10-13-4-2-12-1-16 1zm14 7 3 5c3 9-8 16-15 10-6-6-2-16 6-16l6 1zm-559 55c5 6 1 15-7 15-3 0-4 0-6-3l-3-5c0-3 2-7 5-9 2-2 8-1 11 2zM1329 88c-6 3-9 9-9 15l1 7c1 2-2 6-36 39l-37 38v75l-167 168-168 167-5-1c-6-2-11-1-15 3-16 13-2 37 16 29 9-3 13-11 11-20l-1-5 168-169 169-169v-75l36-35 36-36 4 1c12 3 22-5 22-16 0-8-3-13-10-17-5-2-10-1-15 1zm14 9c6 6 2 15-5 15-5 0-7-1-9-4-1-4-1-7 1-10 3-5 9-5 13-1zM910 606c5 5 2 14-5 15-4 1-9-2-10-6-3-9 8-16 15-9zM1049 99c-13 6-13 25 0 31l4 1v71l-56 56c-55 55-56 56-58 55-7-3-18 1-22 8-2 4-3 12-1 15 2 4 6 8 10 10 8 3 16 0 21-8 2-4 3-12 1-16-1-1 5-7 56-59l57-57v-74l3-1c3-2 7-6 9-10 2-3 1-11-1-15-3-5-4-6-8-8-5-2-10-1-15 1zm14 9c3 2 4 7 2 11l-4 4c-9 3-17-6-11-14 3-4 9-5 13-1zM939 324c3 3 3 8 0 11-6 6-16 2-16-5 0-9 10-13 16-6zM1442 100c-4 1-8 4-10 7-3 3-4 12-2 16l1 3-51 52-51 51-4-2c-5-1-9-1-14 1-14 7-13 26 2 32 13 5 27-9 22-22-1-3 3-6 51-54 35-36 52-51 53-51 10 2 15 1 20-5 11-12 0-32-17-28zm11 11c3 3 3 9-1 12-4 4-8 4-12 0s-4-8 0-12c3-4 9-4 13 0zm-130 125c3 1 5 5 5 8s-3 7-7 8c-11 4-16-13-5-17 2-1 3-1 7 1zM0 129c0 6 0 6 7 12 5 6 6 7 5 9l-1 7c0 5 1 6 3 10 4 5 8 7 14 7 10 0 17-7 17-17 0-7-2-11-8-15-4-2-12-3-16-1-2 1-3 0-11-8l-10-9v5zm34 22c4 4 4 9 0 12-4 4-8 4-12 0-6-6-2-15 6-15 3 0 4 1 6 3zM1500 140c-7 2-10 6-12 14-2 11 6 20 17 20l7-1c2-1 3 0 45 42l43 42v-11l-40-40c-39-39-40-40-39-43 2-5 1-13-4-18-2-3-11-6-13-6l-4 1zm10 9c5 4 5 10 1 14-6 6-15 2-15-6 0-6 3-9 9-9l5 1zM1565 149c-4 2-8 6-9 11-4 13 8 25 22 21l4-1 9 9 9 8v-12l-6-6c-6-5-6-5-5-8 3-8 0-17-6-21-5-3-13-4-18-1zm12 7c3 2 5 6 5 9s-3 7-6 8c-6 2-12-2-12-9 0-2 0-4 3-6 3-3 6-4 10-2zM1442 154c-4 1-8 4-10 7s-2 5-2 9v8c1 1-12 15-50 53l-52 51-5-1c-6-2-12 0-17 4-12 13-1 33 17 29 5 0 12-7 13-14l-1-8-1-4 51-51c36-36 52-51 53-50h14l7-5c8-9 5-22-6-27-5-2-6-2-11-1zm11 11c3 3 3 9-1 12-4 4-8 4-12 0s-4-8 0-12c3-4 9-4 13-1zm-129 125c5 3 5 12-1 15-8 5-18-6-11-13 3-4 7-5 12-2z"/><path d="M1008 163c-7 3-11 12-9 20l1 5-34 35-35 34-5-1c-14-4-26 10-21 23 2 4 7 8 10 10 14 5 27-8 23-22l-2-4 35-35 35-34 5 1c9 2 17-2 20-9 3-8 2-15-4-20-5-5-12-6-19-3zm11 7c6 2 7 11 2 15-7 6-17-1-14-10 2-5 7-7 12-5zm-91 96c5 5 2 14-5 15-5 2-11-3-11-8 0-4 3-7 6-9 3-1 7-1 10 2zM775 172c-11 4-15 16-10 25 7 12 26 11 31-1l1-3h50l50 1c0 3 6 9 10 11 7 3 15 1 20-6 8-9 3-24-9-27-8-2-16 2-20 9l-2 4h-98l-3-4c-4-8-13-11-20-9zm12 11c3 4 3 9-1 12-4 4-8 4-12 0-6-6-2-15 6-15 3 0 5 1 6 3zm132-1c6 5 4 14-3 15-5 1-8 0-10-3-3-5-3-7 1-11 3-4 9-4 12-1zM620 183c-6 4-8 8-8 15l2 9c2 3 7 7 10 8l1 36v35l-56 56-56 56-4-2c-10-3-21 4-22 15-1 10 6 18 16 19 6 0 10-1 14-6 4-4 6-10 4-16l-1-5 57-57 57-58v-73l2-1c4-1 8-6 9-9 2-5 1-12-1-16-4-6-8-8-15-8l-9 2zm15 9c4 3 4 8 0 12s-8 4-12 0c-2-2-3-3-3-6 0-8 9-12 15-6zM511 406l2 6c0 5-1 7-4 8-4 3-8 2-11-1-4-4-4-8 0-12 3-4 9-4 13 0zM0 192v6l26 26c24 23 26 26 25 28-2 4-1 12 2 16 9 15 31 8 31-9 0-6-2-10-8-15-3-2-4-2-9-2h-8c-2 0-8-5-30-28L0 186v6zm74 61c5 5 0 15-7 15-6 0-11-8-8-14 3-5 12-5 15-1zM136 194c-9 5-12 15-7 25 3 6 13 9 21 7l3-1 35 35c25 24 35 35 34 36l-1 7c-1 9 6 17 16 18 6 0 10-1 14-6 6-7 6-16-1-23-5-6-11-7-20-4a548 548 0 0 1-70-71v-14c-2-6-10-11-17-11l-7 2zm12 7c7 3 7 13 0 17-4 2-8 1-11-3-4-4-2-11 3-13 3-2 3-2 8-1zm97 97c4 4 3 11-3 14-5 3-13-2-13-8l3-6c4-4 9-4 13 0zM206 198c-5 2-10 8-11 13-1 12 10 22 22 19l5-1 35 34 35 35-2 5c-2 9 1 16 9 20 11 6 25-2 25-15 0-12-10-20-22-17l-5 1-35-34-34-35 1-5c2-6 1-11-3-15-5-7-14-9-20-6zm11 7c3 2 5 6 5 9l-3 5c-3 4-9 4-13 1-3-3-3-5-2-9 2-6 8-8 13-6zm94 95c3 1 6 6 5 10s-4 6-8 7c-5 0-10-4-10-9 0-4 2-7 5-8 4-2 4-2 8 0zM1105 205c-5 4-8 9-8 15l1 7c1 2-12 15-75 78l-76 76h-70l-1-3c-2-6-10-11-16-11-5 0-12 4-15 8-3 5-3 13-1 18 6 11 24 12 30 1l3-4h74l77-77c72-72 78-78 80-77h14c7-4 11-13 9-20-3-9-8-13-17-13l-9 2zm14 7 4 5c3 9-7 16-15 10-2-2-2-4-2-7s0-5 2-7c3-2 8-3 11-1zM866 377l3 8c0 5-6 10-11 9-6-2-9-9-6-14 2-3 7-5 10-4l4 1zM1438 207l-6 5c-3 4-4 12-2 17l2 4-52 51-52 52-5-1c-6-2-11 0-15 3s-7 9-7 13c0 5 3 11 6 14 13 10 31 0 29-15l-1-6c-1-2 9-12 51-54l52-52 4 1c12 3 24-9 21-21-3-11-15-16-25-11zm14 9c6 5 3 15-6 15-4 0-5 0-7-4-3-4-2-8 1-11 4-4 8-4 12 0zm-130 127c3 1 6 5 6 9 0 6-6 10-12 8-8-3-8-14 0-17h6zM1497 217c-4 1-8 6-9 11a18 18 0 0 0 25 20l44 42 43 43v-11l-40-41c-37-36-40-40-39-42 2-3 1-10-1-15-4-8-14-11-23-7zm14 9c4 3 3 13-1 14-11 4-19-8-11-14 3-3 4-3 7-3l5 3zM329 224c-6 4-8 8-8 15 0 10 7 17 17 17 8 0 13-4 16-10l1-3h99l2 4c6 11 23 12 30 2 5-8 4-16-3-23-4-3-4-4-11-4-9 0-13 3-16 9l-2 4h-49c-49 0-50 0-50-2-1-3-6-8-9-10-4-2-13-1-17 1zm14 7c5 4 5 10 1 14s-9 4-12 0c-4-4-4-9 0-12 3-3 8-4 11-2zm133 0 4 4c3 6-2 13-9 13-4 0-9-5-9-9 0-7 8-11 14-8z"/><path d="M572 224c-5 3-8 8-8 14v7c1 3 0 4-33 38-24 24-35 34-37 34h-8c-4-1-6 0-9 2-7 5-10 14-6 22 7 14 26 13 32-2v-10l-1-6 35-34c25-25 35-35 36-34l8 1c5 0 6 0 10-3 5-4 7-9 7-16-1-6-4-11-9-13-5-3-13-3-17 0zm15 9 3 6c0 4-5 9-9 9-6 0-9-4-9-9 0-8 9-12 15-6zm-96 92 4 5c2 7-2 12-9 12-3 0-4-1-6-3l-3-4c0-4 2-8 5-10h9zM721 224c-12 7-11 24 1 31 4 2 12 2 16 0 3-2 7-7 8-10 1-2 4-2 51-2h49l1 3c3 6 9 10 16 10 6 0 9-1 13-5 6-7 6-16 0-24-4-4-9-5-15-5-6 1-10 4-13 9l-2 4h-99l-2-4c-4-6-8-9-15-9l-9 2zm15 9c4 4 4 8 0 12-5 6-15 3-15-6 0-8 9-12 15-6zm131-2c4 2 5 4 5 8 0 9-10 12-15 6-4-4-4-8 0-12 3-3 7-4 10-2zM1140 236c-5 2-9 7-10 12v9l1 5-92 92-91 92h-71l-1-3c-4-10-16-14-24-9-11 6-13 19-5 27 8 9 21 7 28-3l2-4h74l93-93 93-93 5 1c15 4 27-11 20-25-4-8-14-11-22-8zm11 8c2 1 5 6 5 9l-3 5c-5 6-15 3-15-5 0-7 7-12 13-9zM867 443c4 5 2 12-4 14-6 3-12-1-12-8 0-5 5-9 10-9l6 3zM0 252v6l31 30 30 30v223l-30 31-31 30v12l35-34 34-35V315l-34-34-35-35v6zM135 269c-5 3-9 9-9 15 0 12 12 21 23 17l3-1 37 37 38 37h155l18-18c17-17 18-18 20-17 8 3 18-1 22-8 5-9 1-20-9-24-5-2-8-2-14 0-7 3-11 12-9 20l1 5-17 17-17 17H232l-36-36-36-36 1-5c2-9-2-17-9-20-6-3-11-3-16 0zm15 9c4 4 2 13-4 15-5 2-12-3-12-9 0-8 10-11 16-6zm281 36c6 3 7 10 2 15s-11 4-14-3c-3-5-1-10 5-12h7zM724 272c-14 6-14 26-1 32l3 1v208l-79 79-78 79H414l-1-3-6-7c-3-2-4-2-10-2-8 0-11 1-15 8-4 8-2 18 6 23 4 2 12 3 17 1 3-2 8-7 8-10 1-2 2-2 80-2h80l80-81 81-80V306l4-2c11-6 13-19 4-28-4-5-12-6-18-4zm11 9c9 5 3 19-8 16-3-1-6-5-6-9 0-2 3-7 5-8 4-1 6-1 9 1zM403 669c6 5 2 15-6 15s-12-9-6-15c4-4 8-4 12 0zM92 288c-12 5-12 26 1 31l3 1v99l-3 2-6 5c-3 4-4 5-4 10 1 8 3 13 10 16 9 4 18 1 23-8 2-5 2-9 0-14-1-5-4-7-8-9l-4-2v-99h3c3-1 9-7 10-12 2-6 0-11-3-16-6-6-14-8-22-4zm13 7c4 3 6 8 4 12s-5 5-9 5c-7 0-11-7-8-13 3-5 8-6 13-4zm2 135c7 7-1 19-10 15-3-1-6-6-6-8 0-6 6-11 11-9l5 2zM1499 291c-4 1-10 7-11 12-2 7 1 15 7 19 2 2 5 2 9 2h8c2-1 8 5 38 35l36 36v70l-36 37-37 36-4-1c-14-5-27 11-20 25 3 6 8 8 15 8 6 0 7 0 10-2 6-5 9-12 7-20l-2-4 38-37 37-38v-38l-1-40-37-38c-36-35-36-36-35-39s1-10-1-14c-3-7-13-11-21-9zm11 9c9 7 0 21-9 16-4-2-5-4-5-8 0-3 1-5 3-7s8-3 11-1zm1 248c3 3 3 8-1 12-3 3-5 4-9 2s-6-5-6-8c0-9 10-13 16-6zM1421 294c-5 2-11 7-12 12-2 8 3 18 10 21l3 1v99l-3 1c-5 2-11 10-11 16a17 17 0 1 0 26-14l-4-3v-99l4-2c8-5 11-15 7-23-2-5-5-7-10-9h-10zm10 9c5 4 5 10 1 14-6 6-15 2-15-6 0-6 3-9 9-9l5 1zm-2 133c3 1 6 6 6 9l-3 5c-5 6-15 3-15-6 0-7 6-11 12-8z"/><path d="M0 328v6l12 11 11 11v148l-11 12-12 12v11l16-16 15-15V353l-15-16-16-16v7zM672 325c-9 3-12 9-12 18 1 7 3 10 9 14l4 2v154l-52 53-52 52H467l-2-4c-2-5-6-8-11-9-14-4-26 10-21 23 2 5 8 10 13 11 8 1 16-3 19-9l2-4h105l54-55 55-54V358l4-2c6-2 8-6 9-13 0-6 0-7-3-11-4-7-12-9-19-7zm12 10c7 8-5 21-13 14-4-4-4-12 1-15 3-2 9-1 12 1zM456 615c3 3 3 6 2 10-2 5-8 7-13 5-3-2-5-7-5-10 2-4 5-7 10-7l6 2zM768 325c-8 3-12 9-12 18 1 7 3 10 9 14l4 2v50c0 46 0 49-2 50-3 1-8 5-10 9-2 5-1 12 1 16 4 6 8 8 15 8 10 0 17-7 17-17 0-5 0-6-3-10l-6-6-4-1v-99l4-2c6-4 8-7 9-14 0-6 0-7-3-11-4-7-12-9-19-7zm12 10c5 6 1 16-7 16-4 0-9-5-9-10s4-8 9-8l7 2zm-1 134c6 5 2 15-6 15-5 0-9-4-9-10 0-4 5-8 9-8l6 3zM1477 345c-5 4-8 8-8 15l2 8c1 3 6 8 9 8 2 1 2 2 2 50v50l-4 2c-6 3-8 7-9 14 0 5 0 7 2 10 6 10 19 12 27 4 4-4 5-7 5-13s-3-11-8-14l-5-3v-50c0-48 0-49 2-50 3 0 8-5 10-8 2-5 1-13-1-17-4-6-8-8-15-8l-9 2zm15 9 3 6c0 4-5 9-8 9-6 0-10-4-10-9 0-8 9-12 15-6zm0 133c5 5 4 12-3 15-8 3-16-6-10-14 3-5 9-5 13-1z"/><path d="m616 380-6 5c-3 4-3 5-3 10 0 7 2 12 9 15l4 2v100l-26 26-25 26H466l-1-3c-5-11-20-13-28-4-8 8-5 22 5 27 6 3 9 3 15 0 4-2 9-7 9-10l53-1h52l29-28 28-29V414l4-3c5-3 8-7 9-14 0-6-2-12-7-15s-13-4-18-1zm14 9c3 3 4 8 2 11-3 3-9 5-13 3-3-2-5-7-4-11 2-5 4-6 9-6 3 0 4 0 6 3zM454 560c3 2 6 8 4 11-3 8-13 9-16 2-3-5-1-10 4-13 2-1 5-1 8 1zM303 404H189l-37 36-36 37-4-1c-12-3-23 5-23 17 0 7 4 12 11 15 4 2 9 2 14 0 7-3 11-13 9-21l-2-4 36-35 36-36h223l16 17c17 16 17 16 16 19-4 12 5 25 18 24 9-1 15-8 15-18 0-11-11-20-22-16l-4 2-17-18-19-18H303zm165 42c8 4 7 16-2 17-5 1-10-2-10-6-1-4 1-9 4-11h7zm-355 40c4 4 2 13-4 15-3 1-9 0-11-3s-1-8 1-11c3-5 9-5 14-1zM1154 414c-14 9-10 30 7 32 7 0 11-1 15-6l4-4h146l35 36c36 35 36 36 35 38-2 4-1 10 1 15 6 11 23 12 30 1 2-3 3-5 2-9 0-10-5-16-15-17l-8 1c-3 1-3 0-40-36l-36-37h-150v-2c0-3-4-9-8-12s-13-3-18 0zm15 9 3 6c0 4-5 9-8 9-6 0-10-4-10-9 0-8 9-12 15-6zm249 87c3 2 4 6 3 11-4 8-16 6-18-3 0-3 0-4 3-7 4-4 8-4 12-1z"/><path d="m209 459-18 18-4-1c-6-2-12-1-17 4-11 10-6 27 9 30 7 1 17-5 19-12v-14c-1-1 2-5 16-18l17-17h147l16 17 17 17-1 5c-5 20 22 30 32 12 7-12-4-27-18-25l-5 1-20-17-18-18H228l-19 18zm-24 25c3 1 6 5 6 9l-3 5c-2 3-4 3-6 3-10 0-13-13-4-17h7zm246 0c8 5 5 18-5 17-9 0-12-12-4-17h9zM1118 464c-4 2-8 6-9 11-3 12 8 24 21 22 3-1 10-7 11-10 1-2 3-2 76-2h74l36 36 36 36-1 4c-3 12 4 22 16 22 7 0 12-2 15-7 8-12 0-27-14-27l-7 1c-2 1-6-2-39-36l-38-37h-152l-1-3-4-7c-6-5-12-6-20-3zm12 7c3 2 5 7 5 11-2 6-11 9-16 4-4-5-3-13 4-15h7zm254 87c7 6 3 17-6 17-4 0-8-3-8-7-1-3 1-8 4-10h10z"/><path d="M253 478c-5 1-10 5-12 10-2 4-2 8-1 13l2 4-52 51-51 52H86l-43 43-43 43v5l1 5 44-44 44-44h54l52-53 53-52 4 1c9 2 18-2 21-10 5-14-7-27-20-24zm8 9c3 2 5 7 5 10-2 6-10 9-15 6l-3-5c-3-7 6-15 13-11zM913 480c-4 1-11 7-11 10l-37 1h-38l-57 57-57 57-4-1c-8-3-17 1-21 10-7 14 9 29 23 22 8-4 11-12 9-21l-1-4 56-56 55-56h71l1 3c2 4 6 8 10 10 13 5 26-6 23-19 0-6-4-11-9-13s-8-2-14-1zm12 9c3 4 4 7 1 11-2 5-7 6-12 4-9-5-5-17 6-18l5 3zM710 614c3 3 3 4 3 7-1 7-9 11-14 7-6-4-6-9-1-14 3-4 8-4 12 0zM379 498c-5 2-8 4-10 8-3 5-3 9-2 14l2 4-38 37-37 37v79l37 37c36 37 37 38 36 40-5 15 10 29 24 22 10-5 12-17 6-26-4-6-10-7-22-6l-30-27-35-36-8-8v-71l36-36 37-36 3 1c5 2 12 1 16-2 6-4 9-14 6-21-2-5-7-9-12-10h-9zm11 11c4 4 4 8 0 12-6 6-15 2-15-6 0-9 10-12 15-6zm0 246c4 5 2 12-5 14-3 1-9-1-10-4-2-4 0-11 4-13 4-1 8-1 11 3zM1118 526c-14 8-11 28 4 32 8 2 17-2 20-10l1-2h150l35 35c28 29 35 36 34 38-1 5-1 11 1 15 6 11 19 13 28 5 13-13-1-34-18-29l-4 1-37-37-37-37h-76l-76-1-7-9c-4-3-13-4-18-1zm14 9c8 7 0 18-11 14-2 0-4-5-4-8 0-4 5-9 9-9l6 3zm251 84c8 4 5 16-4 16-7 0-12-7-8-13 2-5 7-6 12-3zM1576 552c-20 20-25 24-26 23l-8-1c-5 0-6 0-9 2-4 3-7 7-8 12-3 12 9 23 21 20 5-1 11-6 12-11v-14c-1-1 5-8 20-23l22-21v-11l-24 24zm-28 33c3 3 4 7 1 11-2 4-3 4-7 4a9 9 0 0 1-6-15c4-4 8-4 12 0zM255 530c-7 2-13 10-13 17 0 6 5 14 11 16l3 1v99l-3 1c-5 2-9 7-10 12-2 7 1 16 9 20 5 2 14 1 18-2 10-8 9-24-2-29l-4-2V563l4-1 6-6c9-14-4-31-19-26zm11 11c5 5 4 11-2 14-4 2-6 1-10-2s-4-9-1-12c4-5 9-4 13 0zm0 132c2 2 2 4 2 7a9 9 0 0 1-17 3v-6l4-5c3-2 8-1 11 1zM1019 547c-6 3-11 10-11 16s5 14 11 16l3 1v480l27 27 26 27v103l-52 51-52 52-4-2c-8-2-16 0-20 7-3 4-3 5-3 11 1 4 1 7 3 9 6 7 17 9 24 4 5-4 7-9 7-16l-1-7 53-53 53-52v-111l-26-27-27-26V581l4-2c5-4 8-8 9-15 0-4 0-6-2-9-5-8-15-11-23-8zm13 10 3 6c0 4-5 9-9 9s-7-2-9-6v-6c3-7 10-8 15-3zm-68 769c4 2 6 5 6 9s-5 9-9 9-9-5-9-9 2-7 5-9h7z"/><path d="M1415 581c-12 4-16 18-7 27l6 5h2v105l-26 26-27 27v107l-53 53-53 53-1 27v27l-24 24-24 24-4-2c-12-6-25 3-25 16 0 9 8 17 17 17 11 0 19-10 17-20l-1-4 27-26 26-27v-26l-1-27 54-53 53-54V775l27-27 27-27V614l3-2c8-3 12-14 8-23-2-5-5-7-10-9h-11zm11 9c3 2 4 6 3 10-1 3-5 6-8 6-4 0-8-3-9-6-2-5-1-6 1-9 4-4 9-5 13-1zm-226 502c9 4 6 17-4 17s-13-14-4-17c4-2 4-2 8 0z"/><path d="M1469 580c-5 2-8 4-10 8-3 4-3 12-1 17 2 3 7 7 10 8 2 1 2 4 2 52v51l-27 27-27 27v107l-53 53-53 53v53l-25 25-24 25-4-2c-9-4-18-1-23 8-4 7-2 15 4 21 12 10 30 0 29-15l-1-5 26-26 26-26v-54l54-53 53-54V773l27-26 26-26V613l4-1c5-2 9-9 9-15 0-8-4-13-11-16-4-2-7-2-11-1zm8 8c6 2 8 9 4 14-5 7-16 3-16-5 0-5 2-7 9-10l3 1zm-221 505c3 3 3 6 2 10-2 4-5 6-8 6-5 0-10-5-10-10 0-2 4-7 6-8 3-1 7 0 10 2zM1231 590c-7 3-11 11-9 20l1 5-34 35-35 35-5-2c-8-2-17 2-20 9-2 6-2 10 0 15 3 6 7 9 14 10 6 0 10-1 14-6 5-5 6-10 4-16l-1-5 35-35 34-34 5 1c11 3 22-5 22-17 0-9-8-17-18-17l-7 2zm14 9c2 1 4 7 2 10-1 4-7 6-10 5-9-2-9-14-1-17 2-1 6 0 9 2zm-95 94c6 5 4 14-3 16-5 0-8-1-10-5-5-9 6-17 13-11zM834 599c-5 1-9 4-11 10v10l1 5-94 94-93 94v74l-4 2c-5 3-8 7-8 14 0 10 7 17 17 17 11 1 18-7 17-18-1-7-4-12-9-14l-4-1v-72l92-92 94-91c11 2 15 1 20-5 9-9 4-25-8-28-4-1-6-1-10 1zm11 9c3 2 4 6 3 9-1 4-5 7-8 7-4 0-8-3-9-6-3-9 7-16 14-10zM649 897c4 4 2 12-4 14-9 3-15-7-10-14 3-5 10-5 14 0zM1075 600c-9 2-14 11-13 21 1 5 5 10 10 12l3 1v426l27 27 26 27v104l-78 78c-66 65-79 78-81 77h-8c-6 0-7 0-10 2-6 4-7 8-7 15 1 10 7 16 18 16 5 0 10-3 14-8 2-3 2-4 2-11l-1-8 80-79 79-79v-111l-26-27-27-26V634l3-1c3-1 7-5 9-8v-15c-4-8-12-12-20-10zm10 11c4 3 4 8 0 12l-6 3c-6 0-11-8-8-13 3-6 10-7 14-2zm-120 770c4 2 5 4 5 8 0 5-3 8-8 9-4 0-5 0-7-3-4-4-4-8 0-12 2-3 6-4 10-2zM1576 627c-23 23-24 24-27 23h-14c-4 3-9 8-10 12-2 12 6 21 18 21 5 0 9-2 13-6 4-5 5-10 3-16l-2-4 22-21 21-22v-11l-24 24zm-27 32c3 3 4 7 2 11-3 6-10 7-15 2s-3-12 3-14c4-2 7-1 10 1zM1270 625c-4 3-8 9-8 13l1 7 1 4-57 57-57 56v75l-4 2c-7 4-10 12-8 20 5 18 32 16 34-3 0-8-3-14-9-17l-5-2v-70l56-57 56-56 4 2c10 3 19-2 22-12 4-15-13-28-26-19zm15 7c5 5 5 9 1 13-5 6-14 3-15-4-1-3 1-8 4-10s8-1 10 1zm-124 215 3 6c0 3 0 4-3 7-5 5-12 4-15-3-3-8 7-16 15-10zM944 633c-8 4-12 13-9 23 0 3-2 5-34 38l-35 34-5-1c-15-4-27 12-20 25 6 11 21 12 28 3 4-5 5-10 4-16l-1-5 35-35 35-35 3 2 8 1c4-1 5-2 11-7 7-6 5-19-4-25-4-3-12-4-17-2zm13 10c4 3 4 7 1 12-4 6-13 5-15-2-3-5-2-7 1-10l6-3c3 0 5 1 7 3zm-93 96c2 4 2 8-2 11-3 3-4 3-7 3-4-1-7-4-8-8 0-3 0-4 2-7l5-3c4-1 8 1 10 4zM658 647c-4 1-9 5-11 11-1 4-1 6 2 15 0 1-4 6-25 26l-24 25h-5a4076 4076 0 0 1-102 1l-27 27-26 25-3-1c-7-2-16 0-20 6-3 5-4 14-1 20 3 4 10 8 15 8s11-3 14-7 4-12 2-17l-1-3 25-25 25-25h107l27-27 27-27 3 1h8c14-4 18-21 7-29-6-5-10-6-17-4zm10 8c2 1 5 6 5 9l-3 5c-6 7-17 2-15-8 1-5 8-9 13-6zM435 785c5 2 7 9 3 13-5 7-16 3-16-6 0-3 2-6 5-7 3-2 4-2 8 0z"/><path d="m708 652-6 6v14c1 2-4 7-51 54l-51 52H493l-27 26c-23 24-27 27-28 26-3-2-11-2-15 0-3 2-8 7-9 11s1 12 3 15c4 5 7 6 14 6 8 0 11-1 15-7 2-3 2-4 2-10l-1-7c0-1 7-10 24-27l25-25h107l52-53c52-51 53-52 56-51h15c10-6 13-18 5-27-3-4-7-6-13-6-5 0-6 0-10 3zm16 7c6 6 2 16-6 16-4 0-9-5-9-9l3-6c4-4 9-4 12-1zM437 839c4 4 4 10 0 13-4 4-8 4-12 0-2-2-3-4-3-7 0-7 10-11 15-6zM64 666c-8 3-12 10-11 18l2 6-24 26c-21 20-26 25-28 25-3 0-3 0-3 4v4h9l27-26 26-26 4 1c12 3 23-7 22-20-2-10-15-17-25-12zm11 7c3 2 6 8 4 11-2 7-10 8-15 3-4-5-3-11 2-14h9zM100 716l-37 36-4-1c-12-3-23 5-23 16 0 13 12 21 24 16 8-3 12-11 10-20l-1-5 35-36 35-35h74l35 36 36 36-1 3c-2 4-1 13 2 16 7 9 19 10 26 2 8-9 7-20-2-26-3-2-5-3-9-3l-9 1c-1 1-7-5-38-36l-37-37h-79l-37 37zm-40 45c4 4 3 9-1 13-3 3-5 4-9 2-3-1-6-6-6-8 0-3 3-7 6-9 3-1 7-1 10 2zm245 1c6 5 3 15-5 15-5 0-7-1-8-4-3-4-2-8 1-11 4-4 8-4 12 0zM806 694c-7 4-10 12-8 20l2 4-35 35c-25 24-35 34-37 34h-8c-7-1-10 1-14 7-4 7-3 16 3 22 11 10 30 2 29-14l-1-7c-1-1 5-8 34-36 31-32 35-35 37-34h14c5-3 9-8 10-14 1-11-6-18-16-19-5 0-7 0-10 2zm15 9c4 4 4 8 0 12-3 3-4 3-7 3-11-2-10-18 1-18 3 0 4 1 6 3zm-95 93c5 4 5 9 1 13-7 7-18 1-15-9 2-5 9-8 14-4zM1589 705l-10 10h-54l-27 28-28 28v106l-53 53-54 54v54l-25 24-25 25-3-2c-4-3-13-3-18 0-11 6-10 24 0 30 6 3 11 3 17 0s9-9 9-16v-5l26-27 27-26v-53l53-54 54-53V774l25-26 25-25h54l9-9 9-9v-11l-11 10zm-284 386c5 3 7 10 3 15-6 6-16 2-16-6 0-4 2-8 5-9h8zM949 703c-6 3-9 8-9 15l1 7c1 3 0 4-50 55l-51 51h-54l-53 54-54 53h-53l-28 28-28 28v107l-53 53-53 53v53l-25 25-25 25-3-2c-10-6-22-2-26 9-4 12 5 24 18 23 10-1 15-8 16-17v-6l26-27 27-27v-53l53-53 53-53V998l26-26 25-26h54l53-53 54-54h53l53-52 52-52h5c8 2 16-2 20-9 2-4 2-12 0-16-5-8-15-11-24-7zm14 9c6 5 3 15-6 15-8 0-12-9-6-15 4-4 8-4 12 0zm-555 604c3 3 3 6 2 10-1 3-5 6-9 6-5 0-10-6-8-11 1-7 11-9 15-5z"/><path d="M160 711c-7 4-10 12-7 20l1 3-57 57-57 58v74l-4 2c-3 2-5 4-6 7-4 7-4 9 0 16 3 6 7 9 14 9 18 0 25-24 9-32l-5-2v-70l56-57 56-56 5 2c8 2 16-1 20-10 4-8 1-17-7-22-5-3-12-3-18 1zm15 7 3 4c3 10-8 16-15 9-2-1-3-4-3-5 0-8 8-12 15-8zM51 934c4 3 4 8 0 12-7 7-18 0-15-9 2-6 9-8 15-3zM1524 769l-28 29v106l-38 38-37 38h-9c-8-1-9 0-12 2-4 3-7 9-7 14s3 11 7 14c5 3 14 4 19 1 8-4 11-14 8-22l-2-3 40-40 40-40V800l26-25 25-26h44v-8h-47l-29 28zm-108 220c4 3 5 7 3 11-3 5-10 7-15 3-6-6-2-16 6-16l6 2zM1271 756c-5 4-8 8-8 15l2 8c1 3 6 8 9 8l2 1v72l-56 55-55 56-5-1c-5-2-11-1-16 3-8 6-8 21 1 27 5 4 14 4 19 1 7-4 10-13 8-21l-2-4 57-57 57-56 1-7a1461 1461 0 0 0 1-69c3 0 8-5 10-9 2-5 1-12-1-16-4-6-8-8-15-8l-9 2zm15 9c4 3 4 8 0 12s-8 4-12 0c-6-5-2-15 6-15 3 0 5 1 6 3zm-124 214 2 7c0 4 0 5-4 7-4 3-8 2-11-1-4-4-4-8 0-12 3-4 9-4 13-1z"/><path d="m1573 782-6 6c-5 7-4 18 3 23l5 4c2 0 2 1 2 50v50l-4 2c-3 1-5 3-7 6-5 10-1 20 8 24 6 3 10 3 15 0 12-6 12-25 0-30l-4-2v-50c0-49 0-50 2-50 3-1 8-6 10-9l1-8c0-6-2-11-7-14-4-3-13-4-18-2zm14 10c2 2 3 3 3 6 0 8-8 12-15 6-4-3-4-8 0-12s8-4 12 0zm1 134c6 6-1 17-9 15-4-1-7-5-7-9 0-9 10-13 16-6zM517 803c-4 1-8 4-11 8-2 3-2 5-2 10 1 7 4 12 9 14l4 2v104l-26 26-27 26v107l-53 53-54 54v54l-24 24-25 24-3-2c-5-2-13-2-18 1l-6 6c-2 5-2 14 0 17 8 12 25 12 31-1 2-3 2-5 2-9l-1-6 25-25 26-26 1-28v-26l54-53 53-54V996l27-26 26-27v-53c0-52 0-53 2-54 3 0 8-5 10-8 1-3 2-12 0-15-4-8-12-12-20-10zm11 11c4 4 3 11-3 14-5 3-13-2-13-8 0-8 10-12 16-6zm-225 503c3 3 3 4 3 7-2 9-15 11-18 2-3-10 8-16 15-9z"/><path d="M570 803c-4 1-8 4-11 9-4 8-1 19 7 23l4 2v104l-26 26-27 27v107l-30 30-54 53-23 24v53l-24 24-25 24-5-2c-5-2-6-2-10-1-8 2-13 9-13 17 0 10 6 16 15 17 7 0 12-2 16-7 3-4 3-5 3-11v-6l25-26 26-26v-54l54-53 53-53V997l27-26 26-27V837l3-1c4-2 10-8 11-13 1-8-3-15-10-19-6-2-7-2-12-1zm9 9 4 4c5 10-10 18-16 9-5-8 4-17 12-13zm-223 505c4 3 4 8 0 12l-6 3c-4 0-9-5-9-9 0-8 10-12 15-6zM915 808c-5 2-10 6-12 11v10l1 5-93 94-93 93v74l-4 2c-6 3-8 7-9 14 0 5 0 7 2 10 5 9 18 12 26 5 9-8 8-24-3-29l-4-2v-70l92-93c91-90 93-92 95-91 15 5 29-10 22-24-2-4-5-7-10-9h-10zm12 11c2 4 3 6 1 10-2 3-6 5-9 5s-7-3-8-6a9 9 0 0 1 16-9zm-198 288c4 4 2 11-3 14-6 3-13-2-13-8 0-9 10-13 16-6zM323 810c-5 2-8 4-10 9l-2 4H207l-53 52-52 52-3-1c-12-6-26 2-26 14 0 19 24 25 32 9 2-3 2-6 2-10v-5l51-52 52-51h102l1 4c4 7 14 11 22 8 15-6 14-29-2-33h-10zm12 11c4 3 3 12-3 14s-12-1-13-7c0-3 0-4 2-7 4-4 10-5 14 0zM96 935c4 4 4 8 0 12-5 5-12 4-15-3v-6c3-7 10-8 15-3zM1235 818c-5 1-9 4-11 8-2 3-3 7-2 16 1 3-4 7-34 37-32 33-35 35-37 34-3-2-11-1-15 1-8 3-11 14-7 22 7 14 26 14 32-1v-10l-1-5 35-35c24-25 35-35 36-34l7 1c17 1 25-21 10-31-4-3-9-4-14-3zm10 11c4 4 4 8 0 12-6 6-15 2-15-6 0-6 3-9 9-9 3 0 4 1 6 3zm-95 93c5 4 5 10 0 14-3 3-8 3-12 0-6-6-2-16 6-16l6 2zM964 839c-5 2-10 7-11 11-2 8 3 18 10 21l3 1v264l26 27 26 26-1 4c-4 14 11 27 25 20 10-5 12-20 4-28-5-4-11-5-17-4l-5 2-25-25-25-25V872l4-2 6-5c2-3 4-11 3-15-2-6-11-13-17-13l-7 2zm13 9c5 6 1 16-7 16-4 0-9-5-9-9 0-8 10-12 16-6zm63 344c4 4 4 8 0 12-3 3-7 4-11 1-3-1-4-3-4-8 0-8 10-11 15-5z"/><path d="M364 854c-4 2-8 5-9 9-1 2-4 2-53 2h-53l-54 54c-53 53-54 54-56 52l-8-1c-7 0-11 2-15 8-5 8-1 21 8 25 8 3 17 0 22-7 2-3 2-5 2-10l-1-7 53-53 53-53h100l3 4c3 7 8 9 15 9 10 0 16-5 17-15 0-8-2-14-9-17-5-3-10-3-16 0zm13 9c8 7 0 18-10 14-9-3-6-17 5-17l5 3zM137 981c4 3 4 8 0 12s-9 4-12 0c-4-4-4-8 0-12 3-4 8-4 12 0zM763 889c-6 3-8 7-8 15v9c1 1-3 6-24 26l-25 25h-26l-27 1-28 27-28 28v106l-39 39c-38 38-38 39-41 38l-8-1c-9 1-14 7-15 15 0 7 1 11 6 15 8 8 21 5 27-5v-15c-1-2 0-3 39-42l39-40v-107l26-25 25-26 27 1h26l27-27 26-26 4 1c7 3 17-1 20-8 2-5 3-12 0-17-3-7-14-11-23-7zm15 10c3 3 3 8 0 12-6 6-16 2-16-6 0-9 10-13 16-6zm-261 314c4 4 4 8 1 12-6 6-16 2-16-6 0-4 5-9 9-9l6 3z"/><path d="M407 896c-4 2-8 6-9 9l-1 3H291l-53 54c-53 52-54 53-56 52-7-3-17 0-21 7-3 4-4 12-2 17 6 10 19 13 27 5 5-4 6-8 6-16l-1-7 52-52 53-52h101l1 4c3 6 9 9 16 9 6 0 10-2 14-7 2-3 2-4 2-10 1-6 0-7-2-10l-7-6h-14zm13 10 3 6c0 5-5 9-9 9-3 0-5-1-7-3-4-4-4-8 0-12s9-4 13 0zm-239 118c5 5 4 12-2 15-6 2-13-2-13-9 0-4 5-9 9-9l6 3zM396 950c-6 3-8 8-8 15s2 11 9 15l4 3v98l-3 1c-7 3-12 12-11 19 2 11 14 18 24 13l7-4c3-3 4-11 4-15-1-5-7-12-11-13h-2V982l4-2c8-4 11-15 7-23-4-6-7-8-14-9-5 0-7 0-10 2zm15 8 3 6c0 3 0 4-3 7-7 7-19 0-15-9l4-5c3-2 8-1 10 1zm-2 133c6 2 6 8 2 13-4 4-9 5-13 1s-3-9 1-13c4-3 6-4 10-1zM832 979l-5 5c-2 3-4 11-3 15s6 9 10 11l3 1v100l-3 1c-6 2-9 7-10 14 0 6 1 10 6 14 7 7 17 6 24-1 7-8 5-22-5-27l-4-2v-49c0-49 0-50 2-50 3-1 8-6 10-9l1-8c0-7-2-11-8-15-5-3-13-3-18 0zm14 7c4 3 5 10 2 14l-6 3c-3 0-4 0-7-3-4-4-4-8 0-12 3-3 8-4 11-2zm1 135c5 5 4 12-3 15-8 3-16-6-10-14 3-5 9-5 13-1zM927 978c-4 1-9 7-10 11-2 8 2 18 10 21l3 1v162l26 26 26 26-1 4c-3 12 5 22 16 22 7 0 11-2 15-7 6-9 3-21-7-26h-14c-3 1-4 1-28-24l-25-25v-158l3-1c4-2 6-4 8-9 4-7 2-16-5-21-4-3-14-4-17-2zm13 10c3 3 3 4 3 7-1 6-8 10-14 7-3-1-5-7-5-9 2-8 11-11 16-5zm63 239c5 4 5 10 0 14s-13 1-14-5c-1-3 1-8 4-10 2-2 7-1 10 1zM0 983v4h45l24 25c24 24 25 25 24 27-5 13 7 26 19 24 9-2 16-11 15-19s-5-13-13-15c-4-1-11-1-13 1-1 1-7-5-27-25l-27-26H1v4zm115 55c2 2 4 7 3 9 0 4-5 8-8 8-5 0-10-5-10-10 0-2 4-7 6-8 3-1 7 0 9 1zM1485 1032l-53 53-4-1c-8-2-17 3-20 10-3 8 0 18 8 22 9 4 19 1 24-7 2-4 2-12 0-16l-2-3 52-51 51-52h59v-8h-63l-52 53zm-57 61c6 3 7 9 2 14-3 3-4 3-7 3-4-1-8-5-8-9 0-5 3-8 10-10l3 2zM355 992c-3 1-9 6-10 10v13c1 4 6 9 9 10h3v100l-3 1c-4 2-9 7-10 11s1 12 3 15c4 5 7 6 14 6 8 1 11-1 15-7 2-4 3-12 1-17-2-3-7-8-10-9-2 0-2-1-2-50v-50l4-1c9-3 12-17 6-26-2-3-10-7-14-7l-6 1zm10 9c6 2 7 9 3 14-2 2-4 3-7 3-10 0-13-14-4-17 4-2 5-2 8 0zm3 135c5 5 1 15-7 15-4 0-9-5-9-9 0-8 10-12 16-7zM246 1020c-5 3-9 9-9 15 0 7 5 15 11 17 2 0 2 2 2 51v50l-53 54-53 53v53l-27 27-27 27v57l54 53 53 54v53l8 8 9 8h11l-10-10-10-10v-53l-53-54-54-53v-49l27-27 27-27v-53l53-53 53-53v-105l4-2c16-8 10-33-8-33l-8 2zm13 7c3 2 5 7 4 10-1 5-4 7-9 7-3 0-4 0-6-3-3-4-4-6-1-10 2-5 7-6 12-3zM880 1030c-2 0-4 2-5 3-5 4-6 14-4 20 2 3 9 9 11 9l1 50v50l-4 1c-7 4-11 12-8 20 1 6 3 8 8 11 9 4 17 1 22-6 6-9 3-21-6-25l-4-2v-99l3-1c4-1 9-7 10-11s-1-12-3-15c-4-6-15-9-21-5zm13 9c6 6 3 15-6 15-7 0-11-6-8-13 3-6 10-7 14-2zm1 134c3 3 3 8 0 12-6 6-16 2-16-6 0-9 10-13 16-6z"/><path d="M780 1031c-4 2-9 8-9 12-2 8 2 15 9 19l4 2v105l54 55 54 54h52l1 2c1 3 8 10 11 11 4 0 11-1 15-3 5-3 7-8 7-14 0-8-4-15-12-17s-19 3-21 11c-1 2-2 2-25 2h-23l-53-52-52-52v-103h2c4-1 9-7 10-11 2-4 1-11-2-15-5-7-15-10-22-6zm12 7c2 1 5 6 5 8 0 6-6 11-11 9-9-2-10-14-1-17h7zm172 227c4 1 7 6 6 11-2 6-8 9-14 5-6-3-6-11 0-15 4-2 5-2 8-1zM0 1036v4h44l52 53 53 52-1 5c-1 6 0 12 4 16 3 4 12 7 17 5 16-4 18-25 3-32-3-2-11-2-14-1s-4 0-57-52l-54-54H0v4zm171 111 3 6c0 3 0 4-3 7-2 3-3 3-6 3-8 0-12-6-9-12s10-8 15-4zM1511 1059l-27 27-3-2c-9-3-20 2-23 12s5 22 16 22c13 0 22-13 17-23-1-3-1-4 25-29l26-26h58v-8h-62l-27 27zm-30 36c3 4 4 6 1 11-4 6-12 5-16-2-1-3-1-6 2-9 4-5 9-5 13 0zM302 1072c-8 2-13 12-11 20 1 5 5 9 9 11l4 2v48l-53 54-54 53v53l-26 27-27 26v58l53 53 53 53v53l8 9 8 8h12l-10-10-10-10v-53l-53-53-53-53v-51l27-26 26-27v-53l54-54 53-53v-52l4-2c12-6 12-25-1-31-5-2-8-2-13 0zm10 8c8 3 6 15-3 17-5 0-10-4-10-9 0-4 2-7 5-9 4-1 4-1 8 1zM27 1105c-5 3-8 7-9 14 0 5 0 7 2 10 4 7 12 10 20 8l4-1 35 35c25 24 35 35 34 36l-1 7c-1 16 19 24 30 12 2-1 3-4 4-7 3-13-8-24-21-21l-5 1-35-34c-32-33-35-35-34-38l1-7c0-13-13-20-25-15zm15 10c4 4 2 11-3 14-6 3-13-2-13-8 0-9 10-13 16-6zm95 96c2 4 2 4 1 7-4 7-13 8-16 1-3-4-2-8 1-11 5-4 11-3 14 3zM1165 1128l-7 5c-8 7-7 19 2 26 4 3 12 4 16 2l3-1 35 35c24 24 35 35 34 36l-1 5c-1 12 7 21 20 20 9-1 17-12 14-21-3-10-13-15-25-12a611 611 0 0 1-70-72c4-9-2-20-12-23h-9zm12 11c5 5 1 14-6 15-8 1-13-10-7-15 3-4 9-4 13 0zm92 92c3 2 5 6 4 10-2 8-11 10-16 3-3-3-3-7 1-11 2-3 7-4 11-2zM1240 1129c-6 3-10 9-10 17 0 6 2 10 8 14 3 2 8 3 16 2 3-1 7 4 38 34 25 25 34 35 33 36-1 3-1 12 1 15 5 12 22 13 29 2 9-13-3-30-19-26l-4 1-35-35c-25-24-35-35-34-36l1-7c0-7-3-12-9-16-4-2-11-3-15-1zm13 10c6 6 2 15-6 15-7 0-11-7-8-13 2-6 10-7 14-2zm95 95c3 3 3 8 0 12-4 4-10 4-14 0-7-9 6-21 14-12zM1340 1129c-8 4-12 13-10 21 0 4 5 9 10 11 4 2 8 3 12 1l4-2 51 52 52 51-2 3c-2 4-1 13 2 17 3 5 7 6 13 7 6 0 7 0 10-2 6-4 8-8 8-15s-2-11-8-15c-3-2-4-2-11-2l-7 1-51-51-51-52 1-3c2-6 1-12-3-16-5-6-14-9-20-6zm13 11c5 4 2 13-5 14-3 1-8-1-10-5v-8c3-5 10-6 15-1zm124 125 4 4c3 6-1 13-9 13-3 0-8-5-8-9l3-6c3-3 6-4 10-2zM1394 1129c-12 6-15 21-5 29 5 4 10 6 16 4l5-1 51 51c42 41 51 51 50 53l-1 8c0 5 0 6 2 9 5 7 16 10 23 7l6-6c3-4 3-5 3-10 0-10-7-17-16-17l-7 1c-1 1-10-7-53-51l-52-51 1-5c4-14-11-26-23-21zm13 11c5 4 2 13-5 14-3 1-8-1-10-5v-8c3-5 10-6 15-1zm127 127 2 5c0 5-1 7-4 9-7 3-14 0-14-8 0-6 3-9 9-9 3 0 5 1 7 3z"/><path d="M1448 1129c-4 2-8 7-10 10-5 13 7 27 21 23l4-1 42 41 51 52c11 10 11 10 9 13-3 8 1 19 9 22s17 0 22-7c3-5 3-13 0-18-4-6-9-8-15-8l-7 1c-1 1-14-11-53-51l-52-51 2-5c5-13-10-27-24-21zm12 10c8 7 1 18-9 15-5-2-7-8-5-13 3-5 9-6 14-2zm127 128c5 4 4 11-2 14-3 2-3 2-6 1-8-3-9-9-4-15 3-4 8-4 12 0z"/><path d="M1499 1129c-7 3-12 12-10 20 2 10 14 17 24 12l2-1 43 42 42 43v-12l-39-40c-37-36-40-40-39-42 3-6 0-16-6-20-5-3-12-4-17-2zm11 8c2 1 5 6 5 9 0 5-7 10-12 8-8-3-8-14 0-17h7zM1554 1129c-4 0-10 7-11 12-3 12 6 23 18 22l7-2c1-1 4 1 17 14l15 15v-11l-12-13c-12-11-13-13-12-15 2-6 0-14-5-18-4-5-9-6-17-4zm10 8c2 1 5 6 5 9s-3 7-6 8c-11 4-17-13-6-17h7zM608 1151l-7 5c-7 9-4 22 6 27 5 2 9 3 14 1 4-2 7-5 9-9l2-4h100l79 79 79 79v24c0 23 0 24-2 25-3 1-8 5-9 9-4 8-1 18 7 22 18 9 35-13 20-27l-6-5h-2v-52l-81-81-81-81h-53l-52-1c0-2-6-9-10-11h-14zm11 9c2 0 3 2 4 5s1 4-1 6c-4 7-12 7-16 1-2-5-1-8 3-12 3-2 6-3 10-1zm281 227c5 3 5 12-1 14-5 3-10 2-12-3-3-4-2-6 1-10 2-2 3-3 6-3l6 2zM0 1185v6l36 36 36 36-2 3c-1 5-1 9 1 14 3 9 15 13 25 7 11-6 10-22-1-29-3-2-5-2-11-2h-6l-39-39-39-39v6zm92 81c3 2 4 7 3 11-4 6-10 7-15 2-3-3-3-4-3-7 1-7 9-10 15-6z"/><path d="M662 1204c-4 1-10 7-11 12a17 17 0 0 0 31 14c3-5 3-5 9-5h24l18 1 52 52 52 52v23c0 23 0 24-2 25-3 0-8 5-9 8l-2 8c0 17 22 23 32 9 2-4 3-12 1-17-2-3-7-8-10-8l-2-1v-51l-54-55-54-54h-52l-1-3c-2-4-5-7-9-9-5-2-8-2-13-1zm10 9c3 1 6 6 5 10s-4 6-9 7c-10 1-13-16-2-18l2-1 4 2zm176 174c3 4 3 10-1 13-4 4-8 4-12 0s-4-9 0-12c3-4 9-4 13 0zM248 1232c-3 1-8 7-10 11v12c2 4 8 10 11 10l1 24v24l-26 27-27 27v56l54 54 53 53v48l-3 1c-7 3-12 12-11 18 1 3 2 3 5 3h4v-4l1-6c6-7 18-3 17 6l-1 4h9v-5c0-6-3-12-9-15l-4-2v-51l-53-54-54-54v-49l27-26 26-27v-51l3-2c5-1 9-6 10-11 4-13-9-25-23-21zm13 10c4 4 3 9-1 13-3 3-6 4-10 2-2-1-5-6-5-9 0-2 3-7 6-8s7 0 10 2zM1179 1232c-4 2-9 6-11 9-2 5-1 14 2 18 5 6 11 8 22 6l18 16 17 16v223l-36 36-35 36-5-2c-6-2-12 0-17 5l-4 5h4l8-1 6-1 9 2c4 0 5 0 5-2l37-38 36-36v-230l-18-18-18-18 2-4c4-14-9-26-22-22zm9 8c5 3 7 10 3 15-2 2-4 3-7 3-10 0-13-14-4-17 4-2 3-2 7-1zM0 1239v6l10 9c9 9 10 11 9 13v14l6 6c4 3 5 3 10 3 10 0 17-7 17-17 0-7-2-11-8-15-4-2-12-3-16-1-2 1-4 0-15-12l-13-13v6zm41 27c3 2 3 3 3 6 0 9-9 13-15 7-4-4-4-8 0-12 3-4 7-4 12-1zM518 1265c-12 5-16 19-8 28 8 10 25 7 29-5 1-2 4-2 50-2h50l2 4c3 5 7 8 13 9 6 0 11-1 15-6 7-7 6-19-2-25-9-6-20-4-26 6l-2 4h-99l-1-3c-2-4-7-9-12-10h-9zm145 11 2 6c0 3-1 4-3 6-4 4-8 4-12 0s-4-9 0-13c3-2 4-3 8-2l5 3zm-134 0 3 6-3 6c-4 4-8 4-12 0-2-2-3-3-3-6 0-9 9-12 15-6z"/><path d="M1139 1270c-14 7-13 27 2 33h10l5-1 17 16 16 17v148l-17 16c-16 17-17 17-20 16-6-3-17 1-21 8-9 15 9 32 25 23 6-4 9-14 7-20l-2-4 18-18 18-17v-155l-18-18-17-18 1-5c4-14-10-26-24-21zm12 9c6 3 6 11 1 15-5 2-9 2-12-2-4-5-3-11 2-14 3-1 6-1 9 1zm1 246c3 2 3 3 3 6 0 10-12 13-16 5-3-5-2-10 3-12 4-3 6-2 10 1zM1308 1271c-6 3-8 7-9 14l1 8c1 2 0 3-17 20l-18 19v155l37 37c36 36 37 37 36 39-2 5-1 10 1 15 5 9 17 12 25 6 16-12 4-36-14-31l-5 1-36-36-36-35v-148l16-17c15-15 17-16 19-16 9 2 11 2 16 0 6-3 9-9 9-16 0-6-2-10-7-14-4-3-13-4-18-1zm15 10c4 4 2 11-3 14-11 4-18-11-8-17 3-1 8-1 11 3zm35 280c3 2 5 5 5 9 0 5-5 9-10 9-9-2-11-14-3-17 4-2 3-2 8-1zM475 1316c-5 3-9 7-9 12-3 12 9 23 21 20l4-1 26 26 26 26h110c103 0 109 0 110 2 2 6 9 11 16 11 5 0 11-3 14-7 2-3 4-10 3-15s-7-11-12-12c-8-2-18 3-21 10l-1 3H547l-25-25c-25-25-25-25-23-28 3-6 0-16-6-21-5-3-14-4-19-1zm14 8 3 6c0 3 0 4-3 7-5 5-12 4-15-3v-6l4-5c3-2 8-1 10 1zm294 62c6 3 7 10 2 15-3 3-4 3-7 3-11-2-10-16 1-19l4 1zM1418 1316c-14 5-16 25-3 32l8 2c7 0 14-5 16-11 1-2 3-2 22-2a2083 2083 0 0 1 79 2c0 2 6 8 10 10 13 5 27-8 23-21-3-10-14-16-23-12-4 2-10 9-10 11l-40 1h-60l-2-4c-3-6-13-10-20-8zm12 11c6 7-2 18-11 14-3-2-5-5-5-8 0-9 10-13 16-6zm133 0c7 7-2 18-11 14-3-2-5-7-5-10 2-8 11-10 16-4z"/><path d="M571 1320c-4 1-10 8-11 12-2 14 10 25 22 21 5-1 12-8 12-10s7-2 50-2h49l3 5c6 9 18 11 26 3 9-8 7-22-3-28-5-2-10-3-15-1-4 3-7 5-9 9l-1 3H594l-1-2c-3-9-12-13-22-10zm10 8c4 2 6 7 5 10-1 5-6 8-9 8-7-2-10-8-8-13s8-7 12-5zm136 2c3 2 3 7 2 10-2 6-11 7-15 2s-2-12 4-14c2-1 7 0 9 2zM1363 1359c-10 5-13 17-8 26 7 11 25 10 30-2l2-4h207l3 3 3 2v-6c0-4 0-6-2-6l-106-1h-106l-2-4c-3-8-13-11-22-8zm14 11c2 3 3 7 0 10-2 4-3 4-7 4-7 0-11-7-8-14 3-5 11-5 15 0zM432 1361c-12 4-16 18-8 28 4 4 8 5 16 5l6-1 25 26 26 26h265l3 4c9 15 31 9 31-9 0-7-3-11-8-14s-10-4-16-1c-4 1-6 3-8 8l-2 3H501l-25-25c-25-24-25-24-23-27 2-4 1-11-1-15s-8-9-13-9c-2-1-5 0-7 1zm11 10c4 4 4 8 0 12s-8 4-12 0c-6-5-3-15 6-15 3 0 4 1 6 3zm343 64c2 3 3 8 0 11-4 7-16 3-16-5 0-9 10-13 16-6zM236 1367l-6 5c-3 4-3 5-3 11 1 7 2 10 8 14 4 2 13 3 17 1 3-2 8-7 9-10v-2h99l3 5c3 6 8 8 15 8s12-3 15-9 3-10 0-16c-6-12-25-12-30 0l-2 4H261l-1-3c-1-4-6-8-9-9h-15zm14 9c6 5 2 15-6 15-3 0-4-1-6-3-4-4-4-8 0-12s8-4 12 0zm133-1c3 2 4 7 3 11l-4 4c-5 3-12 0-13-6-1-3 1-8 4-10h10zM0 1379v6l76 76 76 76v63h8v-67l-80-80-80-80v6zM1324 1391c-7 3-10 8-10 15 0 12 11 20 22 16l5-1 34 35c28 28 35 35 34 36-2 10-1 16 5 21 15 14 37-6 26-22-4-5-10-8-16-8l-6 2c-2 0-9-6-37-35-32-31-35-35-34-37l1-7c0-6-2-11-7-14-4-3-13-4-18-1zm13 9c6 6 2 15-6 15a9 9 0 0 1-6-15c4-4 8-4 12 0zm94 94c8 6 0 18-9 15-7-2-8-12-2-16 5-3 7-2 11 1zM1418 1412c-14 5-16 25-3 32l8 2c7 0 14-5 16-11 1-2 5-2 64-2 99 0 91 0 94 3l3 2v-6c0-5 0-6-2-7l-28-1h-130l-2-4c-3-6-13-10-20-8zm12 11c6 7-2 18-11 14-3-2-5-5-5-8 0-9 10-13 16-6z"/><path d="M1149 1414c-5 1-9 5-11 9l-1 3H864l-26 27-27 26H495l-2-4c-3-6-7-8-14-9-7 0-11 2-16 7-5 7-3 20 5 24 10 6 21 3 25-7l2-3h320l26-27 27-26h269l2 4c4 8 15 11 23 7 6-3 11-12 9-18-1-6-4-10-9-13-6-2-8-3-13-1zm12 10c5 5 1 15-7 15-4 0-9-5-9-8s2-7 4-9c3-2 9-1 12 1zm-677 53c4 4 4 8 0 12-2 2-3 3-6 3-6 0-9-3-9-8 0-9 9-13 15-7zM294 1421c-6 2-12 10-12 17 0 4 4 11 8 14 8 6 20 3 25-6l2-4h99l1 3c2 4 4 6 9 8 7 4 16 2 21-5 6-8 3-20-4-25-8-4-17-3-22 3l-5 6c0 2 0 2-50 2-46 0-49 0-50-2-1-4-6-8-9-10-5-2-8-2-13-1zm10 9c3 1 6 6 5 10s-4 6-8 7c-5 0-10-4-10-9 0-4 2-7 5-9 4-1 4-1 8 1zm133-1c6 3 7 10 2 15-3 3-4 3-7 3-9-2-11-14-3-18h8zM0 1433v6l50 49 49 50v62h8v-66l-53-54-54-53v6z"/><path d="M1013 1454c-5 2-9 7-10 10-1 2-2 2-54 2h-52l-27 27-26 26H606l-237-1c0-3-7-10-10-11-4-2-13-1-17 2l-5 6c-8 18 13 34 27 20l5-5v-3h479l26-26 27-27h50c49 0 51 0 52 2 2 7 10 11 18 11 9-1 15-7 15-17 0-8-5-15-12-17-6-1-7-1-11 1zm13 10c5 5 1 15-7 15-4 0-9-5-9-9 0-6 4-9 9-9 3 0 5 1 7 3zm-668 52c5 3 5 11 0 14-6 5-14 1-15-6 0-3 0-4 3-7s8-4 12-1zM1473 1465c-5 1-9 4-12 9-6 11 2 25 15 25l8-1c3-2 9-9 9-11l51-1h50l3 3 3 3v-13l-53-1h-53l-3-4c-3-7-11-11-18-9zm9 10c3 2 4 6 3 10-3 6-9 8-14 4-7-5-3-16 5-16l6 2zM0 1486v6l23 22 23 23v63h8v-67l-27-26-27-27v6z"/><path d="M935 1505c-7 3-11 8-11 16 0 13 14 21 26 15 3-2 7-7 8-10l69-1h31l1 4c3 5 8 8 14 9 6 0 10-1 14-6 6-7 6-17 0-23-8-9-22-7-28 4l-2 4h-99l-1-3c-2-4-6-9-11-10s-7-1-11 1zm13 9c5 6 1 16-7 16-4 0-9-5-9-9 0-8 10-12 16-6zm131-1c1 1 3 2 3 4 5 9-8 17-15 10-3-3-2-10 1-13 3-2 8-3 11-1zM1573 1508l-6 6c-2 3-2 4-2 10 1 7 3 10 9 14l4 2v60h8v-30c0-30 0-31 2-31l5-3c10-8 8-23-4-29-4-2-12-1-16 1zm15 9c5 4 4 11-2 14-5 2-7 2-11-2-3-4-3-8 1-12 3-4 8-4 12 0zM1500 1525c-8 2-14 9-14 17 0 7 4 13 10 16l3 1v41h8v-41l2-1c4 0 10-7 11-11 4-12-8-25-20-22zm8 10c4 2 4 3 4 7 0 9-10 12-15 6-4-4-4-8 0-12 3-3 7-4 11-1zM1253 1538c-10 5-13 14-9 23 3 5 4 6 8 8l4 2v29h8v-15c0-14 0-15 2-15 9-3 13-16 8-25-5-8-13-11-21-7zm10 7c4 2 6 6 5 11-2 7-9 9-15 4-4-3-4-7-1-12 3-4 6-5 11-3zM583 1541c-7 2-13 10-13 17l2 6 1 3-16 17-16 16h12l13-13c11-12 14-14 15-13 3 2 11 1 15-1 2-1 5-3 6-6 3-4 3-5 3-10-1-12-11-19-22-16zm11 11c4 4 4 8 0 12-6 6-15 2-15-6 0-6 3-9 9-9 3 0 4 1 6 3zM376 1557c-5 1-7 3-10 7-5 8-4 18 4 24 3 2 4 3 10 3s7-1 10-3l6-7 1-3h100l2 4c5 12 24 12 30 0 4-8 1-18-6-22-8-6-20-3-25 6l-2 4h-99l-1-3c-2-4-7-9-12-10h-8zm10 11c4 3 4 9 0 12-4 4-8 4-12 0-8-8 4-21 12-12zm132-2c6 3 6 13 0 15-5 3-10 2-13-3-4-8 5-16 13-12zM979 1564c-4 2-9 8-9 10 0 1 13 1-144 1H706l-13 13-12 12h11l8-8 8-8h117c160 0 145 0 145 2s7 9 12 10c12 4 25-8 21-21-1-5-5-9-9-11-6-2-10-2-15 0zm14 10c5 5 1 14-7 14-2 0-4 0-6-3-3-3-4-6-1-10 3-5 9-6 14-1zM1398 1563c-9 4-13 14-10 23 1 3 1 3-4 9l-5 5h5c5 0 6 0 8-3 3-2 3-2 6-1 5 2 9 1 14-1 9-4 13-16 7-25-5-7-14-10-22-7zm13 10c7 7-1 19-10 15-3-1-6-6-6-9 0-2 2-6 5-8 3-1 8 0 11 2z"/></g></svg>