<?xml version="1.0" standalone="no"?>
<!DOCTYPE svg PUBLIC "-//W3C//DTD SVG 20010904//EN"
 "http://www.w3.org/TR/2001/REC-SVG-20010904/DTD/svg10.dtd">
<svg version="1.0" xmlns="http://www.w3.org/2000/svg"
 width="313" height="313" viewBox="0 0 1600.000000 1600.000000"
 preserveAspectRatio="xMidYMid meet">
<rect width="100%" height="100%" fill="#1D1D1D"/>
<g transform="translate(0.000000,1600.000000) scale(0.100000,-0.100000)"
fill="#838383" stroke="none">
<path d="M460 15805 l0 -195 -27 -11 c-45 -16 -90 -67 -103 -115 -27 -96 34
-192 140 -217 62 -15 155 36 186 102 39 82 -12 203 -98 234 -16 6 -18 25 -18
202 l0 195 -40 0 -40 0 0 -195z m100 -304 c44 -42 39 -105 -10 -134 -55 -33
-112 -17 -135 35 -39 95 71 170 145 99z"/>
<path d="M990 15805 l0 -195 -32 -14 c-94 -39 -131 -174 -71 -255 81 -107 237
-97 299 21 18 35 18 121 0 156 -18 35 -54 68 -88 81 l-28 11 0 195 0 195 -40
0 -40 0 0 -195z m99 -301 c65 -54 26 -154 -59 -154 -71 0 -110 66 -79 134 23
50 91 60 138 20z"/>
<path d="M1520 15542 l0 -458 -32 -15 c-100 -45 -128 -182 -55 -266 93 -106
253 -72 298 64 24 73 -18 166 -91 203 l-40 20 0 455 0 455 -40 0 -40 0 0 -458z
m110 -567 c48 -49 19 -135 -51 -150 -56 -13 -120 52 -105 107 20 76 101 98
156 43z"/>
<path d="M2318 15817 l182 -182 0 -512 0 -512 -42 -23 c-108 -59 -117 -215
-17 -288 57 -41 109 -46 173 -17 116 53 140 196 47 280 -21 19 -48 38 -60 42
l-21 6 0 531 0 531 -162 163 -163 164 -60 0 -60 0 183 -183z m271 -1302 c82
-42 48 -165 -45 -165 -67 0 -110 69 -80 129 27 51 71 64 125 36z"/>
<path d="M3118 15550 l452 -450 0 -245 c0 -225 -1 -246 -17 -252 -37 -13 -86
-57 -99 -89 -22 -52 -18 -125 9 -164 76 -112 218 -112 295 0 26 39 30 125 7
169 -16 33 -65 77 -95 86 -19 6 -20 15 -20 265 l0 259 -432 436 -432 435 -60
0 -61 0 453 -450z m535 -1032 c33 -17 46 -39 47 -79 0 -81 -92 -119 -152 -62
-73 70 15 189 105 141z"/>
<path d="M2910 15994 c0 -19 45 -75 73 -92 76 -46 158 -35 220 29 50 53 49 69
-6 69 -31 0 -49 -6 -62 -20 -12 -13 -31 -20 -55 -20 -22 0 -48 8 -63 20 -24
19 -107 29 -107 14z"/>
<path d="M5315 15910 l-90 -90 -787 0 -787 0 -23 42 c-73 133 -260 123 -313
-17 -65 -169 142 -309 277 -187 21 19 41 45 44 58 l6 24 811 0 810 0 131 130
131 130 -60 0 -60 0 -90 -90z m-1778 -62 c45 -42 36 -116 -18 -143 -36 -19
-54 -19 -90 2 -53 31 -59 104 -13 144 37 33 83 32 121 -3z"/>
<path d="M6664 15860 c-135 -136 -141 -141 -168 -130 -88 33 -186 -9 -222 -95
-39 -94 2 -189 100 -230 129 -54 275 91 221 221 l-16 38 168 168 168 168 -55
0 -55 0 -141 -140z m-172 -229 c65 -58 27 -151 -62 -151 -31 0 -43 6 -65 32
-22 26 -26 39 -21 67 7 44 46 81 86 81 19 0 42 -11 62 -29z"/>
<path d="M11296 15984 c-13 -34 -5 -100 17 -139 33 -58 88 -87 159 -82 108 6
182 102 161 209 -5 26 -9 28 -55 28 -45 0 -48 -1 -38 -19 21 -40 12 -87 -21
-115 -60 -51 -143 -16 -143 60 0 22 4 47 8 57 7 15 2 17 -37 17 -32 0 -47 -5
-51 -16z"/>
<path d="M12115 15986 c-72 -32 -109 -94 -102 -170 3 -28 6 -59 8 -69 3 -12
-104 -126 -345 -367 -314 -315 -350 -348 -369 -339 -31 17 -108 14 -144 -4
-130 -68 -130 -245 -1 -313 65 -34 174 -6 219 57 26 38 36 114 20 161 l-11 32
347 349 c281 281 352 347 368 342 56 -17 98 -17 140 0 138 52 145 255 11 316
-48 22 -99 24 -141 5z m100 -80 c39 -17 55 -42 55 -89 0 -62 -71 -103 -129
-73 -68 36 -70 124 -3 160 34 19 35 19 77 2z m-911 -967 c35 -41 34 -83 -3
-120 -60 -60 -150 -22 -151 64 0 83 100 120 154 56z"/>
<path d="M12560 15792 l0 -207 -559 -559 -559 -559 -46 13 c-173 48 -296 -157
-173 -288 28 -30 80 -52 124 -52 104 0 189 101 169 203 -3 18 -7 40 -8 49 -2
12 192 213 565 586 l567 568 0 227 0 227 -40 0 -40 0 0 -208z m-1147 -1423
c30 -33 34 -57 12 -98 -33 -65 -128 -62 -160 5 -17 37 -13 67 14 98 38 44 90
42 134 -5z"/>
<path d="M12877 15093 l-907 -908 0 -375 0 -375 -1119 -1119 -1119 -1119 -32
12 c-102 35 -208 -24 -231 -130 -18 -78 21 -157 95 -190 144 -65 288 68 236
218 l-11 30 1131 1131 1130 1130 0 379 0 378 922 922 923 923 -55 0 -55 0
-908 -907z m-3206 -3963 c21 0 59 -54 59 -82 0 -40 -15 -65 -51 -84 -62 -31
-129 11 -129 81 0 30 6 47 23 62 24 22 54 33 75 27 8 -2 18 -4 23 -4z"/>
<path d="M14990 15832 l0 -168 501 -502 c276 -276 504 -502 505 -502 2 0 4 24
4 53 l0 53 -465 465 -465 464 0 153 0 152 -40 0 -40 0 0 -168z"/>
<path d="M15780 15801 l0 -199 -25 -6 c-28 -7 -69 -47 -92 -90 -24 -46 -13
-128 24 -174 39 -49 74 -65 140 -64 65 0 111 28 144 85 46 83 6 209 -76 238
l-35 13 0 198 0 198 -40 0 -40 0 0 -199z m101 -300 c31 -31 38 -75 19 -112
-13 -23 -61 -49 -90 -49 -26 0 -77 52 -82 83 -14 88 89 141 153 78z"/>
<path d="M10425 15668 c-50 -18 -82 -46 -102 -88 l-18 -39 -1060 -1 -1060 0
-265 -265 -265 -265 -1305 0 -1306 0 -13 35 c-26 73 -128 114 -215 85 -48 -15
-102 -80 -110 -131 -14 -88 44 -176 129 -198 24 -6 50 -9 57 -7 7 2 25 7 40
10 37 8 86 52 103 92 l14 34 1323 0 1323 0 265 265 265 265 780 0 c429 0 897
0 1041 0 l260 0 17 -34 c8 -19 33 -47 53 -63 32 -24 46 -28 103 -28 78 0 120
24 151 85 51 100 -1 220 -108 250 -44 12 -58 12 -97 -2z m120 -110 c22 -26 26
-39 21 -66 -7 -44 -31 -70 -71 -78 -59 -11 -105 28 -105 87 0 86 100 123 155
57z m-5604 -527 c20 -20 29 -39 29 -61 0 -45 -47 -90 -95 -90 -90 0 -120 125
-40 168 36 20 75 14 106 -17z"/>
<path d="M14405 15535 c-49 -17 -102 -76 -111 -122 -6 -33 -2 -85 11 -128 5
-16 -90 -116 -502 -527 l-508 -508 -40 15 c-57 20 -94 18 -145 -7 -111 -56
-130 -193 -39 -280 66 -63 160 -64 230 -1 48 43 63 88 55 162 l-6 56 513 514
c468 467 516 512 535 502 28 -15 96 -14 135 3 43 17 84 67 97 116 35 129 -99
251 -225 205z m120 -100 c38 -37 35 -95 -6 -129 -41 -35 -83 -34 -120 3 -41
41 -37 102 10 138 28 22 89 16 116 -12z m-1306 -1246 c31 -11 61 -52 61 -84 0
-29 -32 -74 -61 -86 -43 -17 -93 3 -114 47 -23 49 -2 103 50 125 27 11 28 11
64 -2z"/>
<path d="M9856 15117 c-25 -14 -47 -37 -60 -64 l-21 -42 -790 -1 -790 0 -265
-265 -266 -265 -1004 0 c-553 0 -1262 0 -1576 0 l-570 0 -17 34 c-8 19 -33 47
-53 63 -32 24 -47 28 -99 28 -52 0 -67 -4 -98 -28 -64 -49 -87 -106 -73 -181
13 -68 97 -136 168 -136 64 0 150 61 170 120 2 6 602 11 1595 12 l1592 3 267
268 268 267 767 0 768 0 23 -42 c28 -50 62 -76 114 -88 119 -27 229 79 209
202 -8 44 -52 101 -96 124 -42 21 -117 18 -163 -9z m141 -72 c12 -8 27 -31 33
-49 29 -88 -76 -153 -147 -92 -61 52 -21 156 60 156 18 0 42 -7 54 -15z
m-5588 -549 c55 -55 14 -150 -65 -150 -29 0 -43 7 -65 32 -16 18 -29 42 -29
55 0 24 23 63 50 85 22 18 80 7 109 -22z"/>
<path d="M13290 15118 c-57 -29 -90 -84 -90 -151 0 -27 5 -58 11 -69 10 -19
-24 -55 -360 -392 l-371 -372 0 -379 0 -380 -1674 -1674 -1674 -1673 -49 12
c-64 17 -109 7 -157 -32 -152 -125 -14 -364 169 -293 85 32 128 115 106 207
l-12 52 1686 1686 1685 1685 0 375 0 375 358 358 359 359 43 -12 c115 -31 223
48 223 164 0 80 -33 130 -106 161 -51 21 -95 19 -147 -7z m141 -87 c58 -58 24
-151 -55 -151 -48 0 -65 8 -81 41 -19 36 -19 69 1 97 34 49 93 54 135 13z
m-4331 -5096 c47 -47 20 -133 -46 -149 -39 -10 -91 20 -104 61 -32 94 78 159
150 88z"/>
<path d="M10494 15011 c-130 -59 -133 -248 -4 -308 l39 -18 1 -355 0 -355
-559 -559 c-547 -547 -560 -559 -586 -548 -69 32 -173 -4 -212 -74 -25 -43
-31 -120 -12 -157 19 -37 62 -78 98 -93 78 -33 163 -2 216 79 20 32 24 121 7
153 -10 18 47 78 559 590 l569 569 0 372 0 372 28 15 c31 16 74 60 91 93 18
36 13 114 -10 152 -28 46 -42 59 -83 76 -47 20 -92 18 -142 -4z m138 -87 c23
-22 33 -79 19 -110 -6 -14 -27 -32 -46 -40 -85 -35 -161 60 -109 134 30 44 96
51 136 16z m-1244 -2160 c30 -35 30 -87 -3 -119 -54 -55 -155 -16 -155 59 0
86 101 125 158 60z"/>
<path d="M14421 15000 c-39 -9 -77 -35 -104 -72 -24 -32 -33 -115 -18 -160
l12 -32 -512 -512 -511 -511 -36 13 c-54 19 -92 17 -142 -8 -136 -69 -127
-259 15 -313 137 -53 277 83 226 218 -9 23 24 59 505 538 355 355 519 513 531
511 101 -20 156 -8 202 43 112 128 -3 324 -168 285z m104 -105 c38 -37 35 -95
-6 -129 -41 -35 -83 -34 -120 3 -37 37 -38 79 -3 120 34 41 92 44 129 6z
m-1300 -1250 c31 -16 55 -50 55 -81 0 -30 -34 -74 -66 -84 -110 -37 -167 126
-59 171 28 11 33 11 70 -6z"/>
<path d="M0 14708 c0 -54 1 -55 66 -121 56 -57 64 -69 55 -86 -6 -11 -11 -44
-11 -74 0 -44 5 -62 30 -95 38 -53 76 -72 143 -72 99 0 167 70 167 170 0 66
-24 110 -79 147 -37 25 -126 32 -162 12 -18 -9 -32 0 -110 78 -50 48 -92 90
-95 92 -2 2 -4 -20 -4 -51z m344 -219 c37 -44 35 -90 -5 -123 -41 -35 -83 -34
-120 3 -59 60 -22 150 63 151 28 0 42 -7 62 -31z"/>
<path d="M15001 14598 c-72 -20 -106 -59 -120 -134 -21 -111 56 -204 168 -204
22 0 52 5 67 10 27 11 38 1 456 -417 l428 -428 0 55 0 55 -402 402 c-392 392
-401 402 -390 428 26 57 11 139 -36 188 -21 22 -109 60 -131 56 -3 0 -21 -5
-40 -11z m100 -91 c47 -36 51 -97 10 -138 -60 -60 -151 -23 -151 61 0 55 34
90 87 90 21 0 45 -6 54 -13z"/>
<path d="M15652 14514 c-44 -23 -79 -66 -93 -116 -35 -131 85 -245 220 -209
l45 12 88 -88 88 -88 0 61 0 61 -61 58 c-57 55 -60 59 -50 88 27 75 -1 164
-64 206 -47 32 -127 38 -173 15z m117 -78 c27 -14 51 -53 51 -82 0 -30 -30
-72 -58 -82 -64 -22 -126 20 -126 85 0 27 7 42 32 64 36 32 60 36 101 15z"/>
<path d="M14421 14460 c-39 -9 -77 -35 -105 -74 -16 -21 -21 -42 -21 -89 0
-34 4 -69 8 -77 5 -11 -128 -150 -507 -529 l-514 -513 -50 13 c-65 16 -122 1
-168 -45 -123 -123 -10 -324 164 -291 55 10 118 80 128 141 4 27 2 61 -5 83
l-11 36 513 513 c359 359 516 510 527 506 32 -13 109 -16 143 -5 20 7 50 28
66 46 81 93 51 223 -64 276 -43 20 -53 21 -104 9z m104 -105 c38 -37 35 -95
-6 -129 -41 -35 -83 -34 -120 3 -37 37 -38 79 -3 120 34 41 92 44 129 6z
m-1288 -1254 c57 -36 53 -119 -8 -155 -82 -48 -177 64 -113 135 37 42 75 48
121 20z"/>
<path d="M10082 14373 c-76 -37 -114 -121 -93 -205 l13 -50 -345 -345 -345
-345 -50 12 c-143 37 -265 -100 -208 -233 16 -39 61 -82 99 -96 132 -50 270
83 224 216 l-14 41 347 347 348 348 50 -12 c88 -22 167 15 203 93 33 73 20
145 -37 198 -53 50 -129 62 -192 31z m112 -73 c58 -22 69 -110 19 -150 -73
-57 -171 10 -142 97 16 51 69 74 123 53z m-915 -964 c47 -47 20 -134 -46 -151
-51 -12 -113 37 -113 89 0 31 26 69 55 82 37 17 73 10 104 -20z"/>
<path d="M7747 14276 c-106 -39 -149 -154 -94 -251 68 -119 255 -110 307 16
l12 29 499 0 c432 0 499 -2 499 -15 0 -22 61 -86 97 -101 72 -30 150 -10 201
51 79 96 31 243 -91 276 -75 20 -161 -20 -197 -92 l-20 -39 -490 0 -490 0 -27
44 c-45 74 -132 109 -206 82z m118 -102 c37 -40 34 -94 -6 -128 -41 -35 -83
-34 -120 3 -60 60 -22 150 64 151 28 0 44 -7 62 -26z m1329 4 c56 -49 33 -140
-38 -153 -47 -9 -74 1 -97 38 -26 43 -24 70 7 106 33 39 89 43 128 9z"/>
<path d="M6199 14167 c-55 -37 -79 -81 -79 -147 0 -43 6 -65 23 -91 20 -30 71
-72 98 -81 6 -2 9 -136 9 -358 l0 -355 -557 -557 -558 -558 -43 15 c-104 36
-210 -36 -220 -148 -8 -102 54 -177 155 -185 64 -5 103 9 143 54 41 48 55 103
39 165 l-13 50 572 572 573 573 -3 367 -3 367 26 11 c34 14 75 56 88 92 19 49
13 120 -12 158 -37 55 -81 79 -147 79 -43 0 -65 -6 -91 -23z m150 -83 c42 -35
43 -84 2 -125 -37 -37 -79 -38 -120 -3 -25 21 -31 33 -31 65 0 81 86 117 149
63z m-1244 -2149 c17 -16 25 -35 25 -59 0 -48 -8 -65 -41 -81 -43 -23 -77 -18
-110 14 -37 37 -38 79 -3 120 34 41 92 44 129 6z"/>
<path d="M0 14085 l0 -60 261 -261 c237 -237 260 -263 250 -282 -21 -39 -13
-124 14 -165 97 -142 314 -74 315 98 0 59 -22 100 -76 141 -32 24 -45 28 -93
27 -31 -1 -66 -3 -79 -5 -18 -2 -81 56 -307 282 l-285 285 0 -60z m743 -616
c43 -53 -3 -149 -73 -149 -65 0 -111 82 -79 141 26 50 114 54 152 8z"/>
<path d="M1362 14059 c-90 -45 -123 -154 -73 -246 33 -64 131 -98 206 -73 l38
12 348 -348 c245 -245 347 -353 343 -364 -4 -8 -9 -38 -11 -66 -10 -99 53
-174 153 -182 65 -5 104 9 144 54 63 72 60 167 -9 235 -54 55 -110 65 -198 38
-7 -2 -170 153 -363 346 -252 252 -348 354 -343 365 13 29 15 111 3 139 -24
60 -103 111 -169 111 -14 0 -45 -10 -69 -21z m113 -73 c73 -31 76 -124 4 -162
-39 -20 -82 -11 -109 23 -36 46 -23 110 28 137 34 19 35 19 77 2z m970 -962
c42 -45 31 -114 -22 -142 -57 -31 -133 14 -133 78 0 22 9 41 29 61 39 39 92
40 126 3z"/>
<path d="M2055 14025 c-50 -25 -93 -82 -101 -132 -19 -125 94 -225 218 -194
l50 13 348 -347 347 -347 -14 -51 c-22 -86 10 -158 88 -197 112 -57 248 24
249 148 0 121 -102 200 -222 172 l-49 -12 -346 345 -345 346 12 49 c17 63 7
114 -31 156 -54 62 -139 83 -204 51z m114 -79 c28 -15 51 -53 51 -86 0 -11
-12 -34 -28 -51 -36 -40 -90 -44 -127 -9 -33 31 -39 53 -25 95 19 56 75 78
129 51z m936 -942 c39 -18 60 -60 50 -102 -8 -39 -34 -61 -77 -68 -49 -8 -98
33 -98 83 0 46 15 72 53 88 40 18 33 18 72 -1z"/>
<path d="M11049 13947 c-52 -35 -80 -92 -76 -152 3 -27 7 -59 11 -70 6 -17
-123 -149 -752 -778 l-759 -759 -351 -1 -352 -2 -10 30 c-22 62 -97 115 -163
115 -49 0 -115 -38 -145 -82 -31 -48 -35 -125 -9 -175 60 -114 237 -123 299
-14 l23 41 225 1 c124 1 290 1 370 0 l145 -1 774 774 c719 719 776 774 798
765 36 -14 110 -11 141 5 75 39 115 125 92 199 -26 89 -78 127 -173 127 -40 0
-63 -6 -88 -23z m143 -68 c11 -6 26 -26 34 -45 38 -90 -68 -164 -143 -100 -22
19 -28 32 -28 66 0 34 6 47 28 66 30 26 75 31 109 13z m-2535 -1649 c7 0 33
-62 33 -80 0 -50 -64 -99 -112 -85 -59 18 -86 82 -57 136 16 30 66 48 103 38
17 -5 32 -9 33 -9z"/>
<path d="M14378 13930 c-20 -11 -47 -34 -59 -51 -29 -41 -37 -121 -16 -170
l15 -36 -517 -517 -517 -517 -52 12 c-59 14 -111 3 -157 -33 -33 -26 -65 -91
-65 -133 0 -42 32 -107 64 -133 124 -97 303 -1 283 152 -3 22 -8 50 -12 61 -5
16 91 117 513 538 l519 519 43 -12 c122 -33 243 88 210 210 -29 109 -152 162
-252 110z m141 -86 c64 -54 28 -154 -56 -154 -43 0 -52 5 -76 40 -26 37 -21
77 12 111 37 37 79 38 120 3z m-1300 -1275 c31 -11 61 -52 61 -84 0 -60 -65
-105 -123 -85 -80 26 -81 138 -2 171 27 11 28 11 64 -2z"/>
<path d="M14974 13835 c-42 -19 -81 -67 -95 -117 -23 -86 35 -185 123 -208 41
-12 103 -6 123 10 7 6 170 -150 440 -420 l430 -430 3 57 3 57 -402 402 c-365
365 -400 403 -390 422 18 34 13 104 -11 152 -40 77 -142 111 -224 75z m137
-91 c40 -36 29 -130 -16 -148 -104 -39 -186 80 -103 149 26 22 39 26 66 21 19
-3 43 -13 53 -22z"/>
<path d="M3289 13757 c-55 -37 -79 -81 -79 -147 0 -100 68 -170 167 -170 79 0
137 37 162 103 l11 27 494 0 495 0 23 -42 c60 -110 225 -118 295 -15 49 72 38
158 -27 222 -40 39 -43 40 -113 40 -85 0 -125 -22 -157 -86 l-20 -39 -495 0
c-485 0 -494 0 -500 20 -9 30 -53 79 -86 95 -44 23 -130 19 -170 -8z m142 -70
c47 -36 51 -97 10 -138 -41 -41 -90 -40 -125 2 -35 41 -35 88 0 123 29 29 86
35 115 13z m1330 3 c10 -6 26 -24 34 -41 31 -59 -14 -129 -83 -129 -45 0 -92
46 -92 90 0 65 82 111 141 80z"/>
<path d="M5724 13761 c-53 -33 -87 -85 -88 -139 -1 -26 3 -61 7 -77 7 -30 -2
-40 -338 -375 -240 -241 -350 -344 -362 -341 -10 2 -45 4 -79 5 -49 1 -67 -4
-96 -24 -73 -50 -97 -141 -56 -220 71 -137 259 -127 314 16 15 40 16 54 6 103
l-12 56 348 348 c250 250 351 345 362 340 8 -4 42 -9 75 -11 54 -3 64 0 101
26 55 40 77 90 72 158 -5 62 -39 113 -91 138 -48 22 -124 21 -163 -3z m147
-90 c20 -20 29 -39 29 -61 0 -45 -47 -90 -95 -90 -51 0 -85 36 -85 90 0 84 91
121 151 61z m-961 -926 c17 -9 33 -28 39 -48 21 -64 -20 -117 -90 -117 -29 0
-43 7 -63 31 -14 17 -26 36 -26 43 0 32 24 78 49 91 34 18 55 18 91 0z"/>
<path d="M7214 13761 c-123 -75 -117 -241 10 -308 37 -19 116 -19 155 1 30 16
73 66 84 99 6 16 39 17 502 17 l495 0 11 -27 c24 -64 85 -104 157 -104 61 -1
90 11 129 53 63 66 64 162 2 233 -37 41 -86 59 -149 53 -58 -6 -104 -37 -130
-89 l-20 -39 -494 0 -495 0 -23 42 c-34 61 -78 88 -147 88 -37 0 -66 -6 -87
-19z m147 -90 c37 -37 38 -79 3 -120 -54 -64 -154 -27 -154 56 1 86 91 124
151 64z m1312 17 c34 -18 46 -39 47 -81 0 -83 -100 -120 -154 -56 -35 41 -34
83 3 120 31 31 67 37 104 17z"/>
<path d="M11395 13636 c-41 -18 -82 -67 -96 -117 -10 -32 -10 -51 0 -90 l13
-51 -918 -919 -919 -919 -351 0 -352 0 -11 28 c-41 98 -157 140 -246 89 -102
-58 -122 -186 -42 -270 79 -85 209 -68 276 36 l24 37 367 0 366 0 931 931 932
931 49 -12 c152 -36 269 107 201 247 -38 79 -141 115 -224 79z m116 -76 c22
-12 49 -60 49 -89 0 -11 -12 -33 -26 -50 -53 -63 -155 -28 -157 53 -2 67 76
117 134 86z m-2843 -1995 c39 -46 23 -113 -35 -140 -62 -30 -123 13 -123 86 0
52 48 93 99 85 21 -3 45 -16 59 -31z"/>
<path d="M0 13479 l0 -55 305 -304 305 -304 0 -1116 0 -1115 -305 -305 -305
-305 0 -60 0 -60 345 345 345 345 0 1150 0 1150 -345 345 -345 345 0 -56z"/>
<path d="M1350 13307 c-52 -27 -90 -90 -90 -149 0 -118 116 -204 225 -168 l37
12 372 -371 372 -371 774 0 775 0 180 180 c175 175 182 181 209 170 78 -29
174 7 213 80 49 93 14 197 -82 241 -51 23 -89 23 -141 0 -78 -36 -116 -117
-95 -203 l13 -50 -168 -169 -169 -169 -735 0 -735 0 -359 359 -359 359 12 50
c22 88 -15 167 -93 203 -55 25 -104 24 -156 -4z m147 -89 c43 -41 24 -127 -34
-149 -54 -20 -124 29 -123 88 2 78 99 116 157 61z m2808 -363 c62 -30 71 -91
21 -141 -51 -51 -111 -41 -141 23 -23 48 -1 103 50 124 28 11 33 11 70 -6z"/>
<path d="M7235 13276 c-136 -61 -139 -261 -4 -316 l29 -12 0 -1042 0 -1041
-788 -788 -787 -787 -771 0 -770 0 -17 34 c-8 19 -33 47 -53 63 -33 24 -46 28
-105 28 -81 0 -112 -18 -146 -85 -42 -82 -19 -177 56 -227 40 -27 126 -31 170
-8 33 16 77 65 86 95 6 20 14 20 798 20 l792 0 808 808 807 807 0 1057 0 1057
42 23 c107 59 126 191 41 281 -43 44 -128 60 -188 33z m116 -83 c92 -55 25
-196 -78 -162 -33 11 -63 51 -63 84 0 25 31 72 54 84 31 15 55 13 87 -6z
m-3322 -3879 c63 -53 25 -154 -58 -154 -84 1 -121 92 -62 151 37 37 79 38 120
3z"/>
<path d="M924 13121 c-124 -56 -120 -259 6 -311 l30 -12 0 -497 0 -496 -32
-16 c-18 -8 -46 -32 -62 -53 -27 -33 -31 -46 -31 -100 0 -76 29 -126 91 -156
90 -44 188 -10 235 82 23 45 24 86 4 135 -20 48 -41 71 -87 94 l-38 19 0 494
0 494 25 6 c38 10 93 71 105 117 16 58 4 114 -33 156 -56 64 -134 80 -213 44z
m126 -76 c40 -21 57 -73 35 -114 -19 -37 -43 -51 -87 -51 -66 0 -104 69 -73
130 25 48 73 62 125 35z m20 -1350 c67 -67 -14 -181 -102 -144 -29 12 -58 54
-58 83 0 51 61 101 110 90 14 -3 36 -16 50 -29z"/>
<path d="M14994 13090 c-45 -14 -102 -74 -114 -120 -19 -71 9 -147 73 -194 22
-16 43 -21 90 -20 34 0 71 3 82 7 17 7 78 -51 378 -350 l357 -359 0 -354 0
-355 -364 -364 -363 -363 -38 12 c-146 48 -280 -115 -204 -249 33 -59 81 -86
154 -86 52 0 67 4 98 28 62 47 86 120 63 192 l-13 40 373 375 374 376 0 384
c0 212 -4 391 -9 399 -5 8 -173 178 -372 377 -354 354 -362 364 -351 389 17
38 15 105 -6 144 -37 74 -130 114 -208 91z m107 -93 c87 -67 3 -207 -94 -155
-34 18 -46 39 -47 81 0 27 7 45 25 62 27 28 88 34 116 12z m7 -2473 c32 -37
30 -88 -7 -125 -33 -33 -47 -35 -96 -15 -37 16 -55 42 -55 81 0 84 102 122
158 59z"/>
<path d="M14207 13057 c-51 -16 -104 -71 -118 -121 -22 -79 26 -175 102 -207
l29 -11 0 -494 0 -494 -27 -11 c-55 -21 -112 -99 -113 -154 0 -43 23 -97 54
-129 65 -65 166 -69 237 -9 90 76 75 224 -29 281 l-42 23 0 494 0 494 42 23
c80 44 110 145 69 226 -24 47 -50 70 -98 88 -46 16 -57 16 -106 1z m104 -90
c47 -36 51 -97 10 -138 -60 -60 -151 -23 -151 61 0 55 34 90 87 90 21 0 45 -6
54 -13z m-17 -1327 c27 -10 56 -56 56 -89 0 -11 -12 -33 -26 -50 -54 -64 -154
-27 -154 56 1 71 57 109 124 83z"/>
<path d="M0 12724 l0 -62 115 -111 116 -111 -1 -742 0 -743 -115 -115 -115
-115 0 -55 0 -55 155 155 155 155 0 771 0 772 -155 158 -154 159 -1 -61z"/>
<path d="M6717 12746 c-84 -31 -122 -91 -114 -179 6 -70 27 -102 85 -135 l42
-23 0 -772 0 -772 -523 -523 -522 -522 -507 0 -508 0 -20 39 c-24 48 -60 78
-112 92 -134 36 -258 -106 -204 -234 18 -44 78 -95 121 -103 81 -15 162 22
193 88 l17 37 525 1 525 0 548 547 547 547 0 791 1 790 41 20 c60 29 81 63 86
138 3 55 0 67 -24 104 -45 68 -125 96 -197 69z m118 -101 c77 -76 -41 -206
-124 -137 -45 37 -42 123 6 151 34 20 92 13 118 -14z m-2278 -2797 c29 -33 35
-57 22 -95 -17 -51 -82 -78 -130 -53 -28 16 -52 68 -44 99 11 45 44 71 90 71
30 0 47 -6 62 -22z"/>
<path d="M7677 12746 c-82 -30 -121 -90 -115 -178 5 -69 27 -103 86 -136 l42
-23 0 -495 c0 -462 -1 -495 -17 -501 -37 -13 -86 -57 -99 -89 -22 -52 -18
-125 9 -165 37 -55 81 -79 147 -79 102 0 170 68 170 170 0 48 -5 64 -30 99
-17 23 -46 49 -65 58 l-35 17 0 492 0 493 42 23 c61 34 81 67 86 141 3 55 0
67 -24 104 -45 68 -125 96 -197 69z m118 -101 c54 -53 11 -155 -65 -155 -45 0
-90 47 -90 95 0 51 36 85 90 85 30 0 47 -6 65 -25z m-6 -1331 c63 -53 25 -154
-58 -154 -56 1 -91 38 -91 98 0 38 49 82 90 82 16 0 42 -11 59 -26z"/>
<path d="M14769 12547 c-54 -36 -79 -82 -79 -144 0 -30 7 -67 15 -82 16 -33
65 -77 95 -86 20 -6 20 -15 20 -500 l0 -494 -42 -23 c-60 -33 -81 -67 -86
-137 -3 -48 0 -67 17 -98 57 -100 189 -120 271 -40 39 39 50 65 50 124 0 65
-26 111 -82 146 l-48 30 0 493 c0 484 0 493 20 499 30 9 79 53 95 86 23 44 19
130 -8 170 -37 55 -81 79 -147 79 -43 0 -65 -6 -91 -23z m152 -86 c20 -20 29
-39 29 -61 0 -40 -47 -90 -85 -90 -56 0 -94 36 -94 90 0 83 91 120 150 61z m0
-1330 c49 -50 37 -121 -27 -147 -84 -35 -160 60 -108 134 34 49 93 54 135 13z"/>
<path d="M6160 12202 c-19 -10 -48 -36 -65 -56 -25 -32 -30 -46 -30 -94 0 -73
28 -120 90 -153 l45 -24 0 -500 0 -500 -258 -258 -257 -257 -511 0 -512 0 -12
29 c-46 111 -198 135 -281 45 -80 -88 -52 -226 55 -275 52 -24 90 -24 142 0
40 18 94 76 94 99 0 9 135 12 527 12 l527 0 283 282 283 283 0 520 1 520 44
27 c50 31 74 69 82 137 7 58 -20 118 -69 152 -44 32 -130 37 -178 11z m144
-93 c25 -30 34 -81 18 -105 -27 -39 -92 -55 -134 -33 -30 16 -50 72 -37 106
18 48 39 63 85 63 35 0 47 -5 68 -31z m-1764 -1714 c34 -18 55 -71 41 -106
-30 -78 -131 -87 -165 -14 -23 48 -8 96 39 123 27 16 51 15 85 -3z"/>
<path d="M3030 11962 l-1145 -2 -365 -365 -365 -365 -40 11 c-116 32 -225 -49
-225 -167 0 -74 37 -128 109 -159 45 -20 87 -19 137 4 76 35 118 130 91 208
l-14 41 356 356 356 356 490 0 c270 0 771 0 1115 0 l625 0 168 -167 c164 -164
167 -167 157 -196 -42 -122 50 -244 177 -235 93 8 157 78 157 173 1 118 -113
202 -221 163 l-41 -15 -174 174 c-95 96 -180 177 -188 181 -8 4 -530 6 -1160
4z m1645 -426 c85 -36 72 -154 -20 -171 -42 -8 -91 24 -100 65 -10 44 12 89
49 106 38 16 31 16 71 0z m-3547 -398 c43 -41 22 -127 -35 -149 -33 -12 -88 5
-108 34 -21 30 -19 80 5 110 33 42 95 44 138 5z"/>
<path d="M11544 11861 c-144 -88 -101 -303 64 -319 67 -6 115 12 155 59 l34
39 729 0 729 0 359 -359 c351 -351 359 -360 348 -386 -18 -40 -14 -96 11 -145
57 -114 225 -122 297 -14 19 29 25 50 24 93 0 101 -54 161 -150 169 -29 2 -66
0 -82 -6 -29 -10 -34 -5 -398 359 l-369 369 -747 0 -748 0 0 24 c0 31 -38 85
-79 113 -44 30 -132 32 -177 4z m147 -90 c20 -20 29 -39 29 -61 0 -40 -47 -90
-85 -90 -57 0 -94 36 -95 91 0 81 92 118 151 60z m2491 -871 c32 -24 40 -65
23 -107 -35 -84 -157 -64 -172 29 -5 32 -1 41 25 68 37 36 86 40 124 10z"/>
<path d="M2094 11409 l-181 -181 -40 12 c-64 20 -126 6 -172 -38 -107 -102
-57 -271 87 -298 73 -14 169 43 193 113 11 33 8 92 -6 138 -5 16 27 53 163
188 l168 167 735 0 734 0 168 -168 168 -168 -12 -52 c-47 -201 216 -306 318
-127 70 124 -41 278 -180 251 -18 -3 -40 -7 -49 -8 -11 -2 -83 63 -196 175
l-178 177 -770 0 -769 0 -181 -181z m-247 -249 c31 -11 63 -55 63 -89 0 -11
-13 -35 -29 -53 -22 -25 -36 -32 -65 -32 -99 0 -124 137 -31 175 27 11 28 11
62 -1z m2462 -5 c82 -42 48 -171 -45 -168 -90 3 -123 126 -46 168 35 18 56 18
91 0z"/>
<path d="M11184 11361 c-49 -22 -80 -60 -94 -112 -34 -124 76 -239 206 -215
38 8 109 65 119 97 6 19 25 19 753 19 l747 0 358 -358 358 -358 -12 -45 c-31
-116 46 -219 164 -219 64 0 113 24 144 72 78 117 -1 267 -140 268 -27 0 -58
-5 -69 -11 -19 -10 -55 23 -392 360 l-371 371 -762 0 -761 0 -11 33 c-6 18
-26 47 -44 65 -57 55 -120 66 -193 33z m115 -76 c35 -18 55 -63 46 -105 -14
-63 -103 -86 -151 -38 -47 46 -30 123 31 149 29 12 43 11 74 -6z m2537 -870
c73 -51 37 -165 -52 -165 -40 0 -81 32 -89 69 -7 33 14 84 42 100 26 15 75 13
99 -4z"/>
<path d="M2527 11218 c-52 -11 -93 -44 -117 -93 -23 -47 -25 -85 -6 -137 l13
-36 -516 -516 -516 -516 -265 0 -265 0 -428 -428 -427 -427 0 -53 c0 -28 3
-52 7 -52 4 0 204 198 446 440 l439 440 266 0 267 0 526 526 526 526 44 -9
c91 -19 174 22 204 102 51 131 -61 263 -198 233z m84 -88 c29 -16 51 -67 44
-101 -13 -58 -92 -89 -141 -54 -12 8 -27 28 -34 45 -31 75 57 149 131 110z"/>
<path d="M9125 11205 c-40 -14 -105 -77 -105 -102 0 -11 -69 -13 -372 -13
l-373 0 -571 -571 -571 -571 -38 12 c-87 29 -180 -13 -217 -98 -64 -143 93
-292 232 -220 78 40 114 121 91 207 l-12 45 558 558 558 558 353 0 352 0 14
-32 c16 -40 61 -83 99 -97 124 -47 254 60 232 193 -8 53 -48 104 -99 127 -49
22 -77 23 -131 4z m121 -99 c38 -38 42 -64 17 -106 -28 -48 -73 -61 -122 -35
-88 45 -48 165 58 174 7 0 28 -14 47 -33z m-2146 -1248 c27 -27 31 -37 26 -66
-11 -71 -89 -113 -140 -75 -53 39 -56 94 -8 146 36 38 81 37 122 -5z"/>
<path d="M3790 11017 c-53 -18 -80 -39 -100 -77 -28 -55 -32 -93 -17 -138 l14
-41 -373 -373 -374 -373 0 -395 0 -394 370 -371 c361 -362 371 -372 360 -399
-55 -146 101 -287 239 -216 98 50 126 169 61 259 -40 57 -104 74 -217 59 -16
-2 -85 60 -299 272 -152 151 -312 312 -356 357 l-78 82 0 353 0 353 363 363
363 362 32 -11 c47 -16 123 -6 161 20 63 45 88 140 57 214 -17 42 -66 83 -114
97 -44 12 -47 12 -92 -3z m114 -108 c35 -41 34 -83 -3 -120 -60 -60 -150 -22
-151 64 0 83 100 120 154 56z m-6 -2455 c44 -50 21 -128 -45 -148 -28 -9 -88
16 -102 42 -24 46 -3 108 44 128 39 17 74 10 103 -22z"/>
<path d="M11175 10738 c-133 -78 -104 -282 46 -318 80 -19 172 25 200 97 l9
23 412 0 c227 0 564 1 748 1 l335 -1 353 -352 c286 -287 352 -357 347 -373
-18 -59 -16 -111 7 -155 55 -108 190 -130 274 -46 129 129 -2 339 -178 286
l-41 -12 -371 371 -371 370 -755 1 c-465 0 -756 4 -758 10 -8 22 -49 75 -74
93 -43 32 -132 34 -183 5z m146 -87 c75 -75 -4 -184 -106 -145 -21 8 -45 56
-45 89 0 38 50 85 90 85 22 0 41 -9 61 -29z m2509 -836 c80 -41 46 -169 -45
-169 -68 0 -113 76 -79 133 29 49 73 62 124 36z"/>
<path d="M15755 10480 c-197 -198 -244 -240 -260 -234 -11 4 -45 9 -75 11 -46
4 -61 0 -89 -19 -45 -31 -70 -66 -81 -114 -27 -121 91 -236 210 -204 52 14
106 61 121 107 11 34 8 111 -5 143 -4 11 59 80 209 230 l215 214 0 53 c0 29
-1 53 -3 53 -1 0 -110 -108 -242 -240z m-274 -329 c33 -34 38 -74 12 -111 -24
-35 -33 -40 -76 -40 -84 0 -120 100 -56 154 41 35 83 34 120 -3z"/>
<path d="M2548 10700 c-70 -21 -128 -95 -128 -165 0 -64 54 -142 112 -164 l27
-10 1 -494 0 -494 -30 -13 c-45 -19 -86 -66 -100 -116 -22 -79 15 -160 92
-200 47 -24 136 -15 181 19 100 76 85 238 -27 291 l-36 17 0 497 1 497 37 17
c22 10 48 35 65 60 86 133 -43 304 -195 258z m115 -111 c42 -45 32 -106 -22
-134 -43 -22 -66 -19 -103 14 -40 35 -43 89 -8 126 40 43 89 40 133 -6z m-6
-1323 c22 -19 28 -32 28 -66 0 -100 -132 -126 -171 -34 -12 29 -12 39 0 68 8
19 22 39 33 45 31 18 80 13 110 -13z"/>
<path d="M10185 10526 c-52 -23 -105 -101 -105 -153 0 -67 53 -145 112 -165
l28 -10 0 -2402 0 -2401 265 -265 265 -265 0 -515 0 -515 -517 -517 -518 -518
-45 16 c-81 28 -157 3 -204 -70 -24 -36 -27 -49 -24 -102 3 -48 10 -69 31 -97
54 -71 171 -87 241 -34 50 39 69 88 63 162 l-5 63 529 528 529 529 0 555 0
554 -265 266 -265 265 0 2380 0 2380 36 20 c58 31 87 78 91 143 3 46 -1 65
-19 97 -43 73 -145 106 -223 71z m136 -95 c20 -20 29 -39 29 -61 0 -43 -47
-90 -90 -90 -44 0 -69 16 -86 56 -12 29 -12 39 0 68 27 64 97 77 147 27z
m-676 -7695 c39 -17 55 -42 55 -86 0 -43 -47 -90 -90 -90 -43 0 -90 47 -90 90
0 43 16 69 53 85 40 18 32 17 72 1z"/>
<path d="M14147 10195 c-117 -41 -153 -184 -70 -276 20 -22 46 -42 59 -45 l24
-6 0 -522 0 -521 -265 -265 -265 -265 0 -535 0 -535 -532 -530 -531 -530 -4
-270 -4 -270 -242 -243 -242 -242 -40 20 c-114 58 -245 -26 -245 -157 0 -93
79 -173 169 -173 108 1 194 103 171 204 l-8 35 265 265 266 265 -5 265 -4 265
533 533 533 533 0 530 0 531 270 270 270 271 0 533 -1 534 28 12 c88 37 127
147 84 232 -24 47 -50 70 -98 88 -48 17 -68 17 -116 -1z m117 -94 c29 -25 38
-59 25 -98 -11 -33 -51 -63 -84 -63 -32 0 -73 30 -84 61 -16 45 -14 54 14 88
36 42 88 47 129 12z m-2264 -5016 c88 -45 57 -170 -42 -170 -96 0 -123 132
-35 170 41 18 42 18 77 0z"/>
<path d="M14685 10197 c-48 -19 -75 -40 -97 -75 -26 -42 -28 -124 -4 -169 16
-32 65 -74 99 -86 16 -6 17 -40 17 -519 l0 -513 -270 -270 -270 -270 0 -535 0
-535 -530 -530 -530 -530 0 -265 0 -265 -248 -248 -247 -247 -40 20 c-85 43
-179 9 -226 -82 -36 -71 -19 -149 44 -205 116 -102 300 -3 283 152 l-6 50 260
260 260 260 0 266 0 265 535 535 535 535 0 535 0 534 265 265 265 265 0 535 0
536 36 13 c51 18 94 89 94 153 0 77 -38 131 -112 163 -43 18 -71 18 -113 2z
m84 -78 c57 -20 78 -94 41 -142 -52 -65 -160 -32 -160 49 0 56 17 77 86 104 1
0 15 -5 33 -11z m-2212 -5051 c30 -28 36 -63 18 -102 -15 -32 -50 -56 -80 -56
-45 0 -95 51 -95 98 0 24 36 71 64 82 28 12 66 3 93 -22z"/>
<path d="M12314 10101 c-78 -36 -115 -115 -93 -203 l12 -50 -348 -348 -347
-347 -45 13 c-83 25 -169 -13 -204 -90 -24 -53 -24 -100 1 -151 28 -57 72 -88
137 -93 66 -6 103 9 147 59 42 45 54 96 37 157 -6 25 -10 46 -9 48 2 2 158
159 347 349 l345 346 43 -12 c115 -32 223 50 223 170 0 93 -83 172 -180 171
-14 0 -43 -9 -66 -19z m133 -87 c27 -17 38 -69 24 -107 -13 -33 -69 -60 -105
-51 -84 21 -91 141 -11 175 24 10 62 3 92 -17z m-943 -946 c56 -50 33 -140
-39 -154 -47 -8 -80 7 -100 46 -45 88 65 173 139 108z"/>
<path d="M8337 10015 c-52 -18 -83 -49 -104 -103 -14 -38 -15 -52 -5 -101 l12
-56 -936 -936 -935 -935 1 -100 c1 -54 1 -220 1 -369 l-1 -270 -37 -20 c-56
-30 -83 -77 -83 -143 0 -107 67 -177 171 -177 107 0 176 78 167 189 -5 66 -41
119 -93 137 l-35 13 -1 311 c0 170 0 331 1 356 l1 46 920 919 c607 607 926
918 937 916 113 -19 154 -10 206 48 85 94 40 246 -82 280 -47 13 -58 12 -105
-5z m117 -94 c28 -25 38 -60 26 -95 -10 -32 -54 -66 -85 -66 -33 0 -73 30 -84
63 -30 90 72 160 143 98z m-1966 -2887 c43 -49 22 -122 -42 -144 -82 -27 -150
68 -100 138 34 48 102 51 142 6z"/>
<path d="M10751 10000 c-92 -21 -146 -112 -127 -214 8 -44 50 -94 93 -112 l33
-14 0 -2133 0 -2132 265 -265 265 -265 0 -520 0 -520 -785 -784 c-652 -651
-787 -782 -802 -775 -10 5 -48 9 -84 9 -57 0 -71 -4 -102 -28 -53 -40 -70 -79
-65 -148 7 -100 72 -159 176 -159 57 0 104 27 140 80 22 31 24 43 19 111 l-5
76 794 794 794 794 0 555 0 555 -265 265 -265 265 0 2113 0 2112 28 11 c34 13
70 46 88 81 17 32 18 121 3 151 -39 75 -119 114 -198 97z m103 -105 c37 -34
36 -87 -3 -126 -20 -20 -39 -29 -61 -29 -64 0 -109 76 -78 133 28 53 97 64
142 22z m-1201 -7707 c33 -17 46 -39 46 -78 1 -52 -27 -81 -81 -87 -41 -5 -47
-2 -71 27 -34 40 -35 80 -1 119 28 34 67 41 107 19z"/>
<path d="M15758 9731 c-225 -227 -239 -240 -264 -231 -37 15 -111 12 -143 -4
-42 -22 -89 -81 -97 -121 -20 -110 60 -204 174 -205 53 0 89 18 130 64 40 45
49 93 29 152 l-15 46 215 211 214 212 -3 58 -3 59 -237 -241z m-271 -324 c30
-27 38 -69 19 -106 -31 -60 -99 -70 -147 -22 -49 49 -33 118 34 146 35 15 64
10 94 -18z"/>
<path d="M12703 9753 c-45 -29 -83 -93 -83 -138 0 -15 5 -45 11 -66 l12 -38
-572 -568 -571 -568 0 -372 0 -372 -38 -21 c-71 -40 -104 -118 -81 -197 51
-184 322 -160 336 29 6 75 -26 134 -89 168 l-48 25 0 350 0 350 561 562 561
561 41 -14 c93 -33 191 20 218 118 40 151 -128 276 -258 191z m146 -74 c48
-45 52 -90 12 -130 -55 -55 -140 -33 -156 42 -7 31 15 82 42 98 30 17 78 12
102 -10z m-1244 -2151 c15 -14 28 -38 32 -60 5 -32 1 -41 -25 -68 -50 -50
-121 -38 -148 25 -36 87 70 164 141 103z"/>
<path d="M9435 9666 c-80 -36 -117 -129 -90 -229 7 -26 -12 -47 -338 -373
l-346 -346 -49 12 c-155 37 -277 -120 -198 -254 60 -102 204 -116 279 -27 38
46 51 102 37 162 l-12 49 349 350 349 350 33 -16 c23 -12 46 -15 77 -10 46 6
55 11 109 62 71 66 53 191 -37 257 -34 26 -121 33 -163 13z m136 -95 c34 -35
37 -72 9 -118 -36 -60 -128 -53 -155 12 -22 50 -19 73 14 106 22 21 39 29 66
29 27 0 44 -8 66 -29z m-934 -958 c26 -39 19 -84 -18 -117 -26 -23 -38 -27
-67 -22 -45 7 -71 33 -78 77 -5 28 -1 41 20 66 15 18 37 33 49 35 34 6 76 -12
94 -39z"/>
<path d="M6582 9530 c-45 -10 -88 -53 -108 -107 -17 -44 -15 -66 11 -148 5
-17 -38 -65 -241 -268 l-247 -247 -46 0 c-25 -1 -262 -1 -526 0 -286 0 -486
-4 -495 -9 -8 -6 -130 -125 -272 -267 l-257 -256 -32 11 c-71 25 -155 -1 -199
-61 -35 -48 -39 -139 -8 -193 27 -47 94 -85 148 -85 50 1 113 32 140 70 28 39
38 123 21 171 l-11 33 248 248 249 248 534 0 534 1 270 268 270 268 34 -10
c24 -8 46 -7 80 2 139 37 178 207 67 296 -54 44 -93 52 -164 35z m99 -80 c22
-12 49 -61 49 -89 0 -12 -13 -35 -29 -53 -64 -72 -174 -14 -154 83 10 52 85
85 134 59z m-2331 -1295 c53 -27 67 -91 30 -138 -52 -66 -160 -27 -160 58 0
36 15 62 48 79 35 19 46 19 82 1z"/>
<path d="M7081 9479 c-24 -16 -49 -46 -57 -64 -17 -41 -18 -108 -3 -137 10
-18 -41 -72 -508 -539 l-518 -519 -535 0 -535 0 -264 -264 c-234 -234 -267
-264 -284 -254 -30 15 -109 13 -144 -5 -37 -20 -81 -70 -89 -103 -11 -41 2
-124 23 -152 40 -53 69 -67 143 -67 77 0 107 16 148 76 20 29 23 43 19 94 -3
33 -6 68 -8 77 -3 12 75 97 245 268 l250 250 531 0 531 0 527 527 c512 512
527 526 552 515 35 -16 120 -15 153 2 101 53 128 180 56 266 -37 43 -75 60
-137 60 -44 0 -62 -5 -96 -31z m163 -74 c58 -54 19 -155 -61 -155 -46 0 -93
46 -93 90 0 22 9 41 29 61 38 38 87 39 125 4z m-2869 -1800 c37 -38 35 -95 -6
-129 -41 -35 -83 -34 -120 3 -21 22 -29 39 -29 66 0 77 99 115 155 60z"/>
<path d="M635 9344 c-77 -39 -113 -107 -101 -188 4 -25 12 -48 18 -52 6 -4
-102 -118 -243 -260 -209 -209 -259 -254 -281 -254 -26 0 -28 -3 -28 -40 l0
-40 47 0 48 0 261 261 260 260 48 -12 c121 -30 230 71 212 196 -17 109 -146
178 -241 129z m115 -79 c34 -18 55 -71 41 -106 -25 -68 -105 -83 -153 -30 -42
47 -31 107 23 137 31 17 54 17 89 -1z"/>
<path d="M998 8843 l-366 -366 -45 12 c-116 33 -227 -48 -227 -164 0 -121 122
-204 235 -160 85 32 127 115 104 207 l-12 50 354 354 354 354 365 0 365 0 358
-358 357 -358 -11 -33 c-15 -44 -6 -127 18 -159 69 -93 194 -103 267 -21 76
84 64 194 -28 263 -21 16 -42 21 -89 21 -34 0 -71 -3 -82 -7 -17 -7 -80 52
-390 362 l-370 370 -395 0 -395 0 -367 -367z m-400 -457 c37 -36 34 -91 -6
-127 -35 -32 -57 -35 -97 -17 -27 12 -55 54 -55 82 0 31 26 69 55 82 37 17 73
10 103 -20z m2451 -2 c63 -52 28 -154 -53 -154 -48 0 -65 8 -81 41 -23 43 -18
77 14 110 37 37 79 38 120 3z"/>
<path d="M8064 9062 c-72 -46 -105 -125 -81 -198 l14 -43 -348 -348 c-248
-247 -354 -347 -366 -344 -10 2 -46 5 -80 5 -69 1 -101 -16 -140 -74 -48 -69
-38 -159 24 -217 114 -108 303 -22 289 132 -2 28 -7 59 -11 70 -5 16 59 85
343 369 317 316 351 347 370 337 29 -15 106 -14 146 3 51 21 89 78 94 140 9
107 -53 178 -162 184 -47 2 -68 -1 -92 -16z m150 -93 c36 -42 34 -82 -4 -121
-27 -27 -36 -30 -71 -25 -112 15 -102 177 11 177 30 0 44 -6 64 -31z m-958
-927 c51 -41 57 -91 15 -133 -71 -71 -182 -6 -150 88 18 56 92 81 135 45z"/>
<path d="M15890 8955 l-105 -105 -265 0 -266 0 -277 -277 -277 -278 0 -530 0
-530 -535 -535 -535 -535 0 -270 0 -270 -249 -249 -249 -248 -32 23 c-44 33
-130 33 -183 0 -106 -65 -101 -236 8 -298 51 -29 109 -29 165 0 59 29 90 83
90 157 l0 55 265 265 265 265 0 265 0 265 535 535 535 535 0 535 0 535 252
252 253 253 269 0 269 0 89 89 89 89 -3 56 -3 57 -105 -106z m-2845 -3869 c59
-25 74 -93 31 -143 -52 -61 -156 -21 -156 60 0 38 23 75 54 87 29 12 32 12 71
-4z"/>
<path d="M9491 8968 c-59 -31 -91 -83 -91 -147 0 -28 5 -62 12 -76 11 -26 0
-38 -503 -541 l-514 -514 -266 0 -267 0 -534 -535 -534 -535 -270 0 -269 0
-278 -278 -277 -278 0 -534 0 -535 -530 -530 -530 -530 0 -265 0 -265 -251
-251 -252 -252 -31 18 c-97 56 -212 17 -252 -85 -46 -122 47 -245 176 -233 96
9 153 73 156 171 l1 59 267 267 266 266 0 266 0 265 530 530 530 531 0 534 0
534 256 258 256 257 267 0 267 0 535 534 534 535 270 1 269 1 521 519 c286
286 522 522 525 524 3 3 26 0 50 -5 81 -18 157 18 196 93 20 39 20 118 0 157
-43 81 -150 113 -235 69z m138 -84 c65 -54 28 -154 -57 -154 -85 0 -122 91
-63 151 37 37 79 38 120 3z m-5552 -6046 c29 -33 35 -57 22 -95 -11 -33 -51
-63 -84 -63 -54 0 -102 62 -89 114 15 62 110 89 151 44z"/>
<path d="M1603 8895 c-69 -42 -99 -127 -72 -205 l12 -32 -572 -572 -571 -571
0 -372 0 -372 -40 -22 c-28 -16 -48 -38 -65 -73 -31 -63 -31 -84 1 -152 30
-64 77 -94 146 -94 182 0 245 236 85 320 l-47 25 0 350 0 350 561 561 561 561
45 -13 c84 -25 164 11 203 92 40 81 10 178 -68 222 -55 31 -124 29 -179 -3z
m142 -71 c13 -9 29 -30 35 -48 30 -92 -81 -156 -151 -87 -16 16 -29 40 -29 53
1 75 83 123 145 82z m-1236 -2160 c42 -35 43 -88 3 -127 -70 -67 -185 1 -152
90 25 65 95 82 149 37z"/>
<path d="M15242 8307 l-282 -283 0 -534 1 -534 -376 -376 -377 -377 -86 1
c-81 1 -90 -1 -124 -27 -39 -30 -68 -89 -68 -139 0 -45 34 -110 72 -138 48
-35 139 -39 192 -8 71 42 104 140 72 213 l-14 30 399 400 399 401 0 530 0 531
257 257 257 256 218 0 218 0 0 40 0 40 -238 0 -237 0 -283 -283z m-1079 -2197
c34 -27 43 -70 23 -109 -30 -56 -95 -69 -143 -27 -61 53 -21 156 61 156 18 0
45 -9 59 -20z"/>
<path d="M12709 8437 c-54 -36 -79 -82 -79 -144 0 -30 7 -67 15 -82 17 -34 68
-79 98 -86 l22 -6 -3 -357 -3 -357 -557 -557 -557 -558 -43 15 c-53 19 -108 8
-158 -30 -88 -67 -84 -211 8 -276 47 -34 134 -38 186 -9 70 39 105 132 78 206
l-14 41 571 569 571 569 2 70 c2 39 3 208 3 378 1 258 3 307 15 307 23 0 78
51 92 87 22 51 18 124 -9 164 -37 55 -81 79 -147 79 -43 0 -65 -6 -91 -23z
m155 -83 c37 -37 35 -86 -3 -125 -39 -38 -84 -39 -123 -2 -60 57 -21 153 62
153 27 0 45 -7 64 -26z m-1249 -2149 c18 -17 25 -35 25 -62 0 -43 -5 -52 -40
-76 -37 -26 -77 -21 -111 12 -37 37 -38 79 -3 120 34 41 92 44 129 6z"/>
<path d="M15733 8176 c-17 -8 -46 -34 -62 -57 -53 -73 -41 -174 29 -232 16
-14 39 -28 50 -32 20 -6 20 -14 20 -503 l-1 -497 -42 -20 c-30 -15 -48 -33
-64 -65 -49 -96 -15 -199 78 -240 61 -26 94 -25 149 3 119 60 121 246 3 302
l-42 20 -1 497 c0 488 0 497 20 503 30 9 79 53 95 86 8 15 15 52 15 82 0 59
-23 104 -72 140 -35 26 -130 33 -175 13z m136 -92 c25 -21 31 -33 31 -65 0
-82 -85 -117 -149 -63 -42 35 -43 84 -2 125 37 37 79 38 120 3z m10 -1339 c61
-60 -9 -172 -94 -151 -38 10 -65 45 -65 86 0 89 96 129 159 65z"/>
<path d="M5173 7970 c-46 -10 -79 -35 -109 -80 -23 -34 -26 -48 -22 -99 5 -69
36 -118 92 -145 l36 -17 0 -517 0 -517 -265 -264 -265 -264 0 -531 0 -531
-535 -535 -535 -536 0 -269 0 -270 -244 -243 -244 -244 -33 18 c-52 27 -130
23 -179 -10 -22 -14 -47 -41 -57 -58 -23 -44 -23 -136 -1 -171 78 -118 249
-114 308 9 18 35 21 57 17 97 l-5 52 250 251 c137 138 254 257 259 265 5 8 9
131 9 274 l0 260 535 535 535 535 0 535 0 535 265 265 265 265 0 532 c0 523 0
532 20 538 30 9 79 53 95 86 18 33 20 121 4 152 -39 75 -119 114 -196 97z
m102 -106 c42 -45 31 -114 -22 -142 -58 -31 -133 14 -133 79 0 79 102 120 155
63z m-2243 -5034 c26 -27 30 -36 25 -68 -16 -96 -146 -110 -176 -19 -32 94 80
158 151 87z"/>
<path d="M5701 7970 c-46 -11 -82 -39 -108 -86 -46 -80 -15 -189 65 -232 l42
-23 0 -517 0 -517 -265 -265 -265 -265 0 -535 0 -535 -303 -302 c-166 -166
-407 -407 -534 -535 l-233 -234 0 -265 0 -264 -239 -240 c-132 -132 -243 -240
-248 -240 -4 0 -30 9 -57 19 -42 17 -54 18 -95 7 -82 -22 -131 -86 -131 -171
0 -95 60 -160 154 -168 69 -6 117 16 156 70 28 38 31 49 29 107 l-2 64 256
257 257 257 0 269 0 269 535 534 535 535 0 531 0 532 265 265 265 264 0 536 0
536 30 12 c43 18 98 83 106 125 15 81 -24 156 -100 191 -54 25 -62 26 -115 14z
m90 -90 c10 -6 26 -24 34 -41 51 -97 -98 -179 -156 -86 -49 79 39 171 122 127z
m-2227 -5046 c37 -37 35 -86 -3 -125 -20 -20 -39 -29 -61 -29 -44 0 -90 47
-90 93 0 79 97 118 154 61z"/>
<path d="M9147 7920 c-49 -15 -94 -57 -113 -106 -15 -40 -16 -54 -6 -103 l12
-56 -930 -930 -930 -930 0 -372 0 -373 -39 -20 c-57 -28 -84 -72 -89 -141 -3
-45 0 -65 17 -96 55 -96 184 -121 264 -50 91 81 72 241 -34 286 l-39 16 0 355
0 355 923 923 c905 905 924 923 951 913 144 -55 287 100 217 237 -24 47 -50
70 -98 88 -43 15 -66 16 -106 4z m118 -112 c29 -34 31 -57 11 -97 -14 -27 -53
-51 -82 -51 -32 0 -73 31 -83 63 -33 99 87 165 154 85z m-1977 -2874 c40 -45
26 -111 -29 -139 -58 -31 -129 14 -129 80 0 85 101 123 158 59z"/>
<path d="M3227 7896 c-48 -18 -74 -41 -98 -88 l-19 -38 -523 0 -522 0 -522
-522 -522 -522 -36 17 c-120 57 -259 -22 -259 -147 0 -182 242 -246 324 -85
15 29 20 56 19 95 l-2 55 514 515 514 514 510 0 510 -1 17 -37 c35 -76 138
-113 221 -78 147 61 133 283 -21 326 -47 13 -58 12 -105 -4z m125 -102 c42
-38 24 -121 -31 -143 -57 -24 -118 9 -127 70 -5 28 -1 41 20 66 38 45 92 48
138 7z m-2391 -1143 c39 -40 39 -82 0 -122 -50 -49 -121 -37 -147 27 -12 29
-12 39 0 68 27 64 97 77 147 27z"/>
<path d="M12345 7821 c-45 -11 -82 -39 -107 -79 -22 -35 -25 -69 -16 -164 3
-24 -43 -73 -342 -373 -320 -321 -347 -345 -368 -335 -34 15 -109 12 -149 -7
-78 -37 -113 -145 -73 -227 66 -138 262 -132 316 10 15 40 16 54 6 103 l-12
56 348 348 c244 244 351 345 362 341 8 -4 38 -9 67 -11 173 -17 251 209 107
309 -43 30 -93 40 -139 29z m109 -112 c35 -41 34 -83 -3 -120 -59 -59 -150
-22 -151 62 0 56 31 89 85 89 36 0 48 -5 69 -31z m-958 -927 c51 -41 54 -105
7 -142 -35 -27 -85 -26 -120 4 -60 52 -21 156 60 156 18 0 42 -8 53 -18z"/>
<path d="M9635 7611 c-45 -20 -92 -70 -101 -107 -21 -81 24 -181 92 -210 l34
-14 0 -1323 0 -1322 262 -262 261 -261 -12 -44 c-40 -142 111 -266 246 -202
105 50 126 206 38 283 -50 43 -104 56 -165 38 l-49 -15 -251 251 -250 251 0
1303 0 1303 39 20 c22 11 49 34 62 51 23 33 36 110 25 153 -14 58 -104 126
-166 126 -14 0 -43 -9 -65 -19z m130 -96 c54 -53 11 -155 -65 -155 -44 0 -90
47 -90 93 0 78 99 118 155 62z m639 -3436 c35 -41 34 -83 -3 -120 -33 -32 -67
-37 -110 -14 -33 17 -41 33 -41 85 0 78 102 111 154 49z"/>
<path d="M3635 7461 c-38 -17 -74 -55 -88 -93 -6 -17 -40 -18 -529 -18 l-523
0 -540 -539 c-534 -534 -540 -540 -565 -526 -14 8 -50 14 -80 15 -67 0 -108
-22 -146 -79 -53 -81 -15 -211 72 -247 83 -35 171 -9 222 66 20 30 23 45 20
103 l-3 67 530 530 530 530 500 0 500 0 24 -45 c32 -61 80 -90 151 -90 97 1
160 58 168 152 7 84 -22 139 -90 174 -47 24 -101 24 -153 0z m136 -90 c74 -74
-1 -186 -98 -146 -93 39 -59 172 45 174 13 1 36 -12 53 -28z m-2397 -1177 c37
-37 35 -86 -3 -125 -41 -41 -90 -40 -125 2 -33 39 -33 79 0 118 35 41 89 43
128 5z"/>
<path d="M7634 7112 c-63 -30 -89 -74 -89 -152 0 -36 3 -74 7 -85 7 -17 -32
-61 -240 -268 l-248 -247 -268 -4 -268 -3 -279 -278 -279 -278 0 -531 0 -531
-386 -386 c-382 -382 -387 -387 -416 -377 -16 6 -52 8 -79 6 -86 -9 -140 -64
-147 -153 -5 -67 9 -105 54 -145 87 -76 216 -51 270 52 17 32 18 105 4 144
-11 27 -1 37 385 424 l395 395 0 535 0 535 255 255 255 255 267 -2 267 -2 265
265 265 264 34 -11 c74 -25 167 13 202 82 24 47 26 119 3 166 -36 77 -147 113
-229 75z m144 -98 c30 -34 29 -85 -2 -121 -52 -61 -156 -21 -156 60 0 87 101
126 158 61z m-2607 -3143 c38 -38 39 -85 4 -124 -55 -59 -155 -20 -155 60 0
46 46 93 90 93 22 0 41 -9 61 -29z"/>
<path d="M4065 7038 c-34 -19 -73 -59 -85 -89 l-12 -29 -526 0 -527 0 -537
-537 c-524 -524 -538 -536 -563 -525 -68 31 -165 1 -210 -65 -29 -44 -34 -126
-11 -172 53 -101 189 -130 268 -56 49 45 61 81 55 160 l-5 72 521 521 522 522
505 0 505 0 19 -41 c27 -55 86 -89 155 -89 63 0 101 18 138 67 24 31 28 46 28
103 0 58 -4 72 -28 103 -16 21 -44 44 -64 52 -41 17 -119 19 -148 3z m136 -97
c20 -20 29 -39 29 -61 0 -46 -47 -90 -95 -90 -28 0 -44 7 -66 31 -37 40 -37
75 0 117 40 43 90 44 132 3z m-2390 -1180 c49 -50 37 -121 -26 -147 -60 -25
-125 18 -125 82 0 47 45 94 90 94 22 0 41 -9 61 -29z"/>
<path d="M3960 6500 c-57 -34 -85 -83 -85 -150 0 -69 27 -114 92 -153 l43 -27
0 -490 0 -490 -33 -14 c-66 -27 -116 -118 -103 -188 21 -111 137 -175 237
-130 24 10 54 30 66 43 29 32 48 105 39 152 -8 44 -67 114 -102 123 l-24 6 0
498 0 499 43 23 c79 43 110 152 64 232 -34 60 -67 80 -140 83 -49 3 -69 -1
-97 -17z m145 -82 c15 -14 28 -38 32 -60 5 -32 1 -41 -25 -68 -73 -72 -187 1
-148 95 8 18 22 38 33 44 31 18 80 13 108 -11z m-14 -1323 c55 -29 63 -89 20
-137 -38 -42 -89 -44 -128 -5 -39 39 -37 90 5 128 37 33 60 36 103 14z"/>
<path d="M8320 6208 c-18 -13 -42 -35 -53 -50 -21 -28 -34 -110 -23 -152 9
-36 55 -87 93 -102 l33 -14 0 -498 0 -498 -35 -13 c-52 -18 -88 -71 -93 -137
-6 -67 9 -103 58 -148 68 -62 169 -57 235 11 78 80 54 222 -46 273 l-39 20 0
495 c0 485 0 494 20 500 30 9 79 53 95 86 8 15 15 52 15 82 0 62 -25 108 -79
144 -47 32 -135 32 -181 1z m141 -71 c41 -31 51 -100 21 -137 -11 -13 -33 -23
-59 -27 -37 -5 -46 -2 -73 25 -40 41 -41 83 -1 123 32 31 82 39 112 16z m10
-1346 c49 -50 37 -121 -27 -147 -84 -35 -160 60 -108 134 34 49 93 54 135 13z"/>
<path d="M9265 6221 c-35 -15 -82 -70 -94 -113 -24 -79 21 -176 98 -208 l31
-12 0 -812 0 -811 260 -260 259 -260 -11 -40 c-30 -112 51 -220 167 -219 63 0
108 24 141 74 60 90 30 205 -68 256 -33 17 -108 18 -143 2 -25 -11 -33 -5
-276 238 l-249 249 0 793 0 792 27 11 c40 15 63 38 84 84 36 78 14 169 -53
216 -35 25 -135 37 -173 20z m137 -101 c26 -27 30 -36 25 -68 -11 -65 -81
-102 -138 -72 -26 15 -52 68 -45 94 20 79 101 102 158 46z m624 -2388 c50 -40
53 -106 6 -142 -51 -41 -133 -13 -147 49 -7 33 14 84 42 100 27 16 76 12 99
-7z"/>
<path d="M0 6170 l0 -40 223 0 222 0 248 -248 c241 -241 248 -249 237 -276
-46 -123 65 -256 194 -232 84 16 151 102 141 184 -9 78 -49 129 -122 153 -38
12 -108 5 -130 -13 -10 -8 -72 48 -275 251 l-263 261 -237 0 -238 0 0 -40z
m1148 -553 c24 -20 43 -66 36 -92 -7 -30 -58 -75 -84 -75 -50 0 -100 49 -100
98 0 24 36 71 64 82 24 10 64 4 84 -13z"/>
<path d="M14845 5681 l-530 -528 -38 10 c-75 19 -168 -31 -196 -106 -31 -82 3
-174 79 -215 85 -45 193 -13 236 70 21 40 22 115 2 154 l-15 31 513 516 513
517 296 0 295 0 0 40 0 40 -312 0 -313 0 -530 -529z m-565 -606 c59 -31 68
-98 20 -147 -27 -26 -36 -30 -68 -25 -47 8 -82 47 -82 91 0 49 26 75 98 95 2
1 16 -6 32 -14z"/>
<path d="M3553 6079 c-36 -11 -90 -61 -104 -96 -12 -31 -12 -105 0 -136 14
-35 65 -85 95 -93 l26 -6 0 -498 0 -498 -30 -12 c-37 -15 -87 -71 -96 -106
-11 -41 2 -124 23 -152 40 -53 69 -67 143 -67 76 0 107 16 148 75 26 39 30
125 7 169 -16 33 -65 77 -95 86 -20 6 -20 15 -20 504 l0 497 35 13 c92 33 127
174 64 262 -23 33 -95 69 -135 68 -16 0 -43 -5 -61 -10z m97 -84 c55 -29 67
-94 26 -142 -19 -22 -32 -28 -66 -28 -98 0 -126 131 -37 170 41 18 42 18 77 0z
m25 -1350 c54 -53 11 -155 -65 -155 -45 0 -90 47 -90 94 0 76 101 116 155 61z"/>
<path d="M2460 5797 c-52 -27 -90 -90 -90 -149 0 -67 53 -145 111 -163 18 -6
19 -22 19 -513 l0 -507 -530 -530 -530 -530 0 -269 0 -269 -270 -271 -270
-270 0 -280 0 -281 535 -535 535 -535 0 -265 0 -265 83 -83 82 -82 60 0 59 0
-102 102 -102 101 0 266 0 266 -535 535 -535 535 0 245 0 245 270 270 270 270
0 265 0 265 530 530 530 530 0 525 0 525 42 20 c162 78 101 325 -80 325 -21 0
-58 -10 -82 -23z m129 -72 c32 -16 52 -62 44 -97 -11 -43 -43 -68 -89 -68 -35
0 -47 5 -68 31 -30 35 -32 58 -10 100 24 47 73 60 123 34z"/>
<path d="M8795 5704 c-16 -8 -38 -23 -48 -32 -46 -41 -62 -143 -33 -200 17
-33 83 -92 103 -92 10 0 13 -101 13 -497 l-1 -498 -39 -18 c-73 -34 -107 -114
-85 -200 14 -56 34 -80 89 -107 82 -39 169 -14 219 62 54 84 24 205 -63 245
l-39 18 -1 496 0 497 30 12 c37 15 87 71 96 106 10 41 -2 124 -23 152 -44 61
-154 90 -218 56z m136 -93 c60 -61 24 -151 -61 -151 -73 0 -110 64 -79 134 24
52 96 61 140 17z m7 -1337 c30 -34 29 -85 -2 -121 -52 -61 -156 -21 -156 60 0
87 101 126 158 61z"/>
<path d="M7801 5693 c-41 -21 -87 -81 -95 -128 -14 -73 25 -150 95 -185 l39
-20 0 -528 0 -527 543 -543 542 -542 258 0 257 0 9 -23 c12 -30 84 -95 116
-103 37 -9 106 3 143 26 48 29 72 76 72 138 0 86 -43 148 -119 170 -79 24
-192 -33 -216 -109 -6 -18 -19 -19 -243 -19 l-237 0 -523 523 -522 522 0 511
0 512 23 6 c33 8 84 62 98 103 16 48 6 116 -22 158 -45 67 -145 94 -218 58z
m114 -75 c27 -12 55 -54 55 -83 0 -53 -64 -104 -112 -90 -88 27 -93 147 -8
178 24 9 37 8 65 -5z m1729 -2268 c41 -15 65 -64 55 -108 -14 -66 -74 -90
-138 -57 -59 30 -57 119 2 155 37 23 46 24 81 10z"/>
<path d="M0 5640 l0 -40 218 0 217 0 525 -525 c289 -289 526 -527 528 -529 1
-2 -3 -23 -9 -47 -14 -54 0 -114 37 -159 35 -41 122 -67 174 -51 155 46 175
251 33 325 -37 19 -111 21 -148 4 -26 -11 -38 0 -563 525 l-537 537 -238 0
-237 0 0 -40z m1705 -1112 c15 -14 28 -38 31 -59 5 -28 1 -41 -21 -67 -22 -27
-34 -32 -69 -32 -71 0 -111 61 -81 123 27 58 94 74 140 35z"/>
<path d="M15105 5411 l-270 -269 -30 14 c-87 38 -193 -15 -225 -112 -35 -106
51 -224 164 -224 121 0 212 131 164 235 -11 25 -4 33 248 286 l259 259 292 0
293 0 0 40 0 40 -312 0 -312 0 -271 -269z m-292 -362 c32 -35 34 -62 8 -106
-37 -60 -125 -53 -156 13 -17 37 -13 67 14 98 38 44 90 42 134 -5z"/>
<path d="M3015 5285 c-78 -27 -127 -122 -106 -203 14 -51 50 -94 96 -116 l35
-17 0 -241 0 -242 -535 -535 -535 -535 0 -265 0 -266 -265 -265 -265 -265 0
-290 0 -290 530 -530 530 -530 0 -263 0 -264 82 -84 82 -84 60 0 61 0 -103
103 -102 102 0 265 0 265 -530 530 -530 530 0 251 0 250 265 266 265 265 0
269 0 269 535 535 535 535 0 260 1 260 41 20 c122 60 113 248 -16 306 -49 22
-77 23 -131 4z m100 -80 c85 -35 66 -157 -26 -171 -50 -8 -99 33 -99 83 0 46
15 72 53 88 40 18 32 18 72 0z"/>
<path d="M274 4951 c-58 -26 -87 -72 -92 -142 -3 -46 0 -65 19 -99 40 -71 117
-102 199 -80 l43 12 349 -349 c245 -244 346 -352 342 -363 -4 -8 -9 -37 -11
-65 -15 -162 187 -248 299 -129 15 16 32 49 39 74 34 130 -82 244 -215 210
l-48 -12 -348 347 c-322 321 -348 350 -339 372 5 13 9 48 9 76 0 125 -127 202
-246 148z m144 -97 c40 -45 26 -111 -29 -139 -58 -31 -129 14 -129 80 0 85
101 123 158 59z m955 -967 c17 -34 17 -38 2 -71 -33 -70 -123 -73 -159 -5 -22
41 -17 80 14 107 50 42 114 28 143 -31z"/>
<path d="M11645 4718 c-16 -6 -47 -26 -67 -46 -78 -74 -67 -197 24 -265 33
-25 118 -34 159 -17 l31 13 349 -349 c242 -242 347 -354 343 -364 -3 -8 -8
-32 -11 -52 -17 -121 69 -209 192 -196 97 11 170 116 145 207 -28 106 -132
156 -247 120 -6 -2 -169 153 -362 345 -326 324 -349 350 -340 373 36 94 -21
205 -119 233 -44 12 -58 12 -97 -2z m120 -104 c50 -54 19 -139 -56 -150 -82
-13 -134 92 -74 151 35 36 97 35 130 -1z m926 -924 c31 -17 50 -63 39 -99 -23
-82 -107 -101 -159 -35 -28 36 -27 76 5 113 28 33 75 42 115 21z"/>
<path d="M12400 4709 c-63 -25 -103 -89 -103 -166 0 -60 25 -105 79 -143 33
-22 83 -27 166 -18 24 3 70 -40 373 -342 252 -251 344 -349 338 -360 -16 -35
-15 -119 3 -155 54 -114 228 -124 299 -16 89 134 -37 304 -194 262 l-45 -12
-348 348 c-246 245 -346 352 -342 363 4 8 9 40 11 70 5 69 -24 124 -82 157
-43 24 -111 29 -155 12z m131 -98 c60 -60 22 -150 -64 -151 -69 0 -107 65 -76
134 24 52 96 61 140 17z m947 -947 c30 -34 29 -85 -2 -121 -34 -39 -98 -39
-132 0 -78 91 54 210 134 121z"/>
<path d="M13395 4706 c-73 -31 -118 -125 -100 -205 9 -43 51 -90 100 -112 48
-22 84 -24 129 -5 l33 14 515 -515 515 -515 -14 -30 c-20 -40 -13 -130 13
-165 37 -50 70 -67 137 -71 53 -3 67 0 97 20 56 38 80 82 80 148 0 66 -24 110
-80 148 -31 21 -44 23 -107 20 l-71 -5 -512 512 -512 512 12 37 c17 52 5 119
-28 157 -50 60 -141 84 -207 55z m135 -101 c47 -47 20 -133 -46 -149 -33 -9
-88 19 -103 50 -14 32 -14 53 3 83 30 55 99 62 146 16z m1243 -1256 c14 -6 30
-22 36 -36 31 -68 -11 -133 -85 -133 -37 0 -84 51 -84 90 0 22 9 41 29 61 31
31 64 36 104 18z"/>
<path d="M13935 4706 c-116 -52 -141 -209 -46 -289 49 -41 102 -53 163 -38
l50 13 510 -508 c417 -418 508 -513 502 -529 -3 -11 -8 -47 -11 -80 -4 -51 -1
-65 19 -94 47 -70 159 -102 229 -66 16 9 43 34 59 57 25 34 30 51 30 98 0 99
-69 170 -165 170 -26 0 -54 -4 -64 -10 -16 -8 -97 70 -532 506 -283 283 -515
516 -517 518 -1 2 3 24 10 49 36 137 -108 261 -237 203z m134 -101 c47 -46 20
-133 -45 -149 -33 -9 -88 19 -103 50 -14 32 -14 53 3 83 30 55 99 62 145 16z
m1266 -1270 c17 -16 25 -35 25 -59 0 -48 -8 -65 -41 -81 -71 -37 -139 0 -139
75 0 56 34 90 90 90 30 0 47 -6 65 -25z"/>
<path d="M14475 4706 c-37 -17 -80 -62 -94 -99 -49 -128 74 -264 206 -228 l46
12 414 -413 c228 -227 461 -458 517 -513 102 -100 102 -100 90 -130 -36 -84 9
-194 91 -225 78 -30 165 -1 212 69 32 47 32 135 0 182 -39 58 -83 81 -147 77
-30 -2 -62 -8 -71 -12 -13 -6 -135 111 -531 510 l-514 517 15 43 c48 135 -101
269 -234 210z m127 -95 c75 -67 7 -182 -89 -150 -53 17 -77 78 -49 128 30 55
90 65 138 22z m1271 -1276 c44 -42 33 -115 -23 -149 -26 -15 -33 -15 -62 -3
-75 32 -91 88 -42 146 34 41 86 43 127 6z"/>
<path d="M14992 4708 c-68 -23 -120 -118 -106 -193 20 -107 148 -176 239 -129
l29 15 423 -423 423 -423 0 60 0 60 -394 394 c-364 364 -394 396 -385 418 25
67 -5 161 -66 202 -41 28 -113 36 -163 19z m103 -80 c27 -12 55 -54 55 -83 0
-56 -70 -106 -121 -86 -80 30 -82 140 -4 172 28 11 40 11 70 -3z"/>
<path d="M15542 4713 c-38 -7 -99 -73 -111 -121 -32 -118 62 -231 183 -218 26
3 55 11 63 17 12 10 41 -14 169 -142 l154 -154 0 60 0 60 -124 124 c-113 113
-124 126 -115 148 23 61 3 138 -47 185 -47 43 -97 55 -172 41z m93 -85 c27
-12 55 -54 55 -83 0 -33 -30 -73 -63 -84 -111 -37 -169 126 -62 170 28 11 40
11 70 -3z"/>
<path d="M6075 4486 c-17 -7 -45 -29 -62 -49 -76 -86 -45 -220 61 -268 50 -23
85 -24 133 -4 48 20 71 41 94 88 l19 37 502 0 501 0 789 -788 788 -789 0 -241
c0 -232 -1 -241 -20 -247 -34 -11 -80 -55 -95 -92 -35 -83 -2 -180 75 -220
178 -94 347 130 204 272 -19 19 -46 38 -59 41 l-25 6 0 257 0 257 -812 812
-812 812 -523 0 c-417 0 -523 3 -523 13 0 22 -62 89 -96 103 -41 17 -100 17
-139 0z m115 -81 c17 -9 33 -28 40 -50 10 -30 9 -40 -7 -68 -40 -68 -122 -70
-158 -3 -22 41 -15 78 22 112 30 28 62 30 103 9z m2808 -2271 c52 -36 48 -120
-8 -149 -54 -28 -99 -15 -125 35 -21 41 -19 64 11 99 20 24 34 31 63 31 20 0
47 -7 59 -16z"/>
<path d="M0 4155 l0 -60 360 -360 361 -361 -16 -37 c-19 -47 -19 -86 1 -138
38 -94 156 -129 250 -74 111 65 108 230 -6 294 -34 19 -52 22 -107 19 l-66 -3
-388 390 -389 390 0 -60z m917 -810 c34 -24 47 -77 28 -114 -31 -60 -98 -70
-147 -21 -26 27 -30 36 -25 68 11 69 89 105 144 67z"/>
<path d="M6623 3959 c-45 -13 -100 -71 -113 -119 -28 -103 43 -207 147 -217
69 -7 130 23 165 81 26 44 28 45 85 48 32 2 140 1 240 -2 l183 -5 520 -520
520 -520 0 -237 c0 -228 -1 -237 -20 -243 -30 -9 -79 -53 -95 -86 -8 -15 -15
-51 -15 -79 0 -169 222 -232 317 -91 27 40 31 126 9 169 -18 35 -65 78 -93 87
l-23 6 0 257 0 257 -543 543 -542 542 -258 0 -257 0 -11 28 c-15 39 -48 72
-94 93 -44 20 -73 22 -122 8z m92 -85 c39 -18 60 -60 50 -102 -8 -40 -35 -63
-82 -69 -106 -14 -133 155 -28 180 11 3 22 5 23 6 2 0 19 -6 37 -15z m1760
-1749 c38 -37 35 -95 -6 -129 -41 -35 -83 -34 -120 3 -38 38 -39 87 -4 125 33
36 95 37 130 1z"/>
<path d="M2484 3679 c-34 -10 -89 -66 -105 -106 -13 -35 -11 -88 5 -126 15
-36 79 -97 101 -97 13 0 15 -36 15 -242 l0 -243 -265 -265 -265 -266 0 -284 0
-285 535 -535 535 -535 0 -238 0 -237 -33 -14 c-64 -26 -118 -121 -103 -180 6
-23 12 -26 46 -26 l40 0 0 43 c0 23 6 49 13 58 56 73 174 28 165 -63 l-4 -38
43 0 43 0 0 48 c0 63 -34 120 -88 150 l-42 23 0 253 0 252 -535 540 -535 539
0 245 0 245 265 265 265 265 0 258 0 258 34 14 c42 18 82 65 97 114 39 131
-90 250 -227 210z m126 -104 c36 -37 33 -89 -8 -126 -35 -32 -57 -35 -97 -17
-27 12 -55 55 -55 83 0 28 33 74 60 84 34 13 70 4 100 -24z"/>
<path d="M11785 3678 c-37 -13 -82 -53 -102 -92 -24 -45 -14 -135 20 -179 45
-59 105 -75 219 -55 11 2 78 -58 182 -161 l166 -165 0 -1115 0 -1114 -357
-357 -356 -357 -46 14 c-65 21 -122 5 -176 -50 l-40 -42 49 -3 c28 -2 60 2 72
9 14 7 37 9 61 5 21 -4 62 -10 91 -13 45 -4 52 -2 52 13 0 9 162 179 365 382
l365 365 0 1151 0 1151 -179 179 -178 178 12 43 c41 135 -88 259 -220 213z
m90 -82 c59 -25 74 -93 31 -143 -19 -22 -32 -28 -66 -28 -98 0 -126 131 -37
170 40 18 32 17 72 1z"/>
<path d="M0 3615 l0 -60 99 -99 c90 -89 98 -101 90 -123 -13 -36 -11 -99 5
-138 8 -18 33 -48 57 -64 35 -26 51 -31 99 -31 102 0 170 68 170 170 0 66 -24
110 -79 147 -38 26 -126 32 -163 12 -18 -10 -34 2 -149 117 l-129 129 0 -60z
m408 -275 c28 -17 32 -25 32 -63 0 -89 -89 -129 -151 -68 -38 39 -39 84 -2
123 32 34 74 37 121 8z"/>
<path d="M5175 3347 c-120 -46 -158 -183 -78 -278 83 -98 252 -68 296 54 6 16
39 17 501 17 l496 0 20 -39 c26 -52 72 -83 130 -89 63 -6 112 12 149 53 68 78
57 196 -23 255 -86 62 -197 38 -252 -56 l-26 -44 -494 0 -494 0 -14 33 c-17
42 -66 83 -114 97 -45 12 -58 12 -97 -3z m1458 -108 c9 -12 17 -38 17 -59 0
-30 -6 -44 -31 -64 -41 -35 -83 -34 -120 3 -42 42 -40 89 5 129 31 27 38 29
73 22 21 -5 46 -19 56 -31z m-1342 2 c20 -20 29 -39 29 -61 0 -22 -9 -41 -29
-61 -37 -37 -79 -38 -120 -3 -25 21 -31 33 -31 65 0 84 91 120 151 60z"/>
<path d="M11394 3296 c-142 -62 -134 -266 12 -322 39 -15 52 -15 101 -4 l57
12 163 -164 163 -165 0 -739 0 -739 -169 -169 c-164 -164 -171 -169 -196 -158
-69 32 -173 -4 -212 -74 -90 -157 89 -328 244 -233 64 40 97 136 70 201 l-15
35 179 179 179 179 0 775 0 775 -176 176 -176 177 13 50 c36 144 -103 266
-237 208z m117 -83 c57 -34 59 -113 4 -149 -42 -28 -84 -22 -117 14 -42 48
-32 108 23 138 32 18 56 17 90 -3z m8 -2459 c26 -21 31 -33 31 -68 0 -92 -116
-126 -163 -47 -30 51 -18 99 31 125 40 22 67 19 101 -10z"/>
<path d="M13078 3290 c-54 -29 -81 -74 -86 -140 -3 -34 1 -67 8 -80 11 -21 1
-34 -169 -204 l-181 -181 0 -775 0 -775 370 -370 c362 -362 371 -372 360 -399
-16 -44 -12 -100 13 -146 47 -90 171 -117 251 -56 154 117 40 354 -148 306
l-48 -12 -359 358 -359 359 0 739 0 739 163 164 c152 154 164 164 192 158 85
-18 105 -17 150 5 60 29 95 87 95 159 0 63 -18 101 -66 137 -48 37 -132 43
-186 14z m150 -96 c41 -47 25 -115 -33 -140 -105 -44 -177 105 -77 161 36 20
81 11 110 -21z m347 -2808 c39 -17 55 -42 55 -89 0 -50 -49 -91 -99 -83 -88
14 -107 131 -28 170 39 19 31 19 72 2z"/>
<path d="M4745 2842 c-47 -29 -82 -77 -90 -121 -21 -124 92 -230 214 -199 l43
11 262 -262 261 -261 1093 0 c1032 0 1093 -1 1099 -17 23 -65 94 -113 168
-113 46 0 109 33 138 71 22 30 33 101 23 152 -8 45 -68 104 -120 118 -79 22
-175 -26 -207 -102 l-11 -29 -1072 0 -1072 0 -251 251 c-248 249 -250 252
-237 278 32 61 6 162 -54 208 -48 36 -141 44 -187 15z m140 -84 c15 -14 28
-38 32 -60 5 -32 1 -41 -25 -68 -51 -50 -121 -38 -148 26 -12 29 -12 39 0 68
8 19 22 39 33 45 31 18 80 13 108 -11z m2940 -622 c63 -27 75 -97 25 -148 -27
-26 -36 -30 -68 -25 -111 18 -106 161 6 186 1 1 18 -5 37 -13z"/>
<path d="M14178 2841 c-142 -46 -161 -248 -29 -318 24 -13 60 -23 80 -23 70 1
141 49 164 112 6 16 28 18 219 20 117 2 342 2 501 0 241 -2 287 -5 287 -17 0
-22 61 -87 97 -101 129 -55 274 73 234 206 -30 101 -140 156 -235 116 -33 -14
-96 -81 -96 -103 0 -10 -88 -13 -397 -15 -219 -2 -444 -2 -500 0 l-103 3 -16
36 c-32 67 -132 107 -206 84z m120 -107 c64 -73 -20 -184 -107 -140 -35 19
-51 44 -51 81 0 84 102 122 158 59z m1332 1 c69 -70 -20 -187 -108 -141 -34
17 -57 65 -48 98 20 76 101 98 156 43z"/>
<path d="M5714 2799 c-42 -12 -101 -79 -110 -124 -25 -133 93 -243 219 -205
44 13 117 79 117 105 0 13 68 15 498 15 l497 -1 27 -45 c57 -93 179 -110 262
-35 86 79 69 224 -34 278 -50 27 -96 29 -148 8 -46 -20 -77 -48 -92 -86 l-12
-29 -499 0 -499 0 -10 25 c-31 82 -121 122 -216 94z m100 -80 c32 -15 59 -70
50 -104 -10 -40 -62 -78 -98 -71 -62 13 -98 74 -75 128 20 48 74 69 123 47z
m1358 -15 c23 -21 32 -72 19 -106 -22 -59 -112 -71 -151 -20 -39 49 -19 122
40 145 23 9 72 -1 92 -19z"/>
<path d="M13625 2406 c-93 -41 -129 -163 -74 -252 70 -114 245 -101 303 21
l17 35 1037 0 1036 0 28 -27 28 -27 0 61 c0 46 -4 62 -16 67 -9 3 -489 6
-1067 6 l-1052 1 -20 42 c-36 75 -138 109 -220 73z m143 -101 c26 -31 28 -71
5 -105 -24 -35 -33 -40 -76 -40 -72 0 -110 68 -75 136 24 50 106 55 146 9z"/>
<path d="M4316 2395 c-121 -43 -159 -184 -75 -280 38 -42 83 -58 159 -53 l59
3 256 -255 256 -255 907 -2 c499 -2 1094 -3 1323 -3 l416 0 28 -43 c96 -152
315 -88 315 93 0 66 -26 111 -84 145 -49 29 -100 32 -153 10 -42 -18 -64 -39
-87 -83 l-17 -32 -452 0 c-248 0 -837 0 -1307 0 l-855 0 -246 246 c-245 244
-246 247 -233 273 20 37 17 110 -5 151 -22 43 -84 86 -131 94 -19 3 -52 -1
-74 -9z m118 -106 c35 -41 34 -83 -3 -120 -37 -37 -79 -38 -120 -3 -65 54 -28
154 58 154 32 0 44 -6 65 -31z m3424 -635 c26 -30 29 -80 6 -112 -48 -70 -164
-33 -164 51 0 86 101 125 158 61z"/>
<path d="M2363 2335 c-17 -7 -46 -33 -63 -57 -29 -39 -31 -48 -28 -105 4 -70
23 -103 78 -140 39 -27 125 -31 168 -9 35 18 78 65 87 94 l6 22 493 0 493 0
30 -48 c36 -58 81 -82 155 -82 67 0 117 31 147 93 27 55 27 99 0 154 -59 121
-245 125 -303 6 l-21 -42 -496 -1 -497 0 -12 29 c-14 36 -56 76 -93 90 -39 15
-105 13 -144 -4z m140 -90 c59 -56 19 -155 -63 -155 -30 0 -44 6 -64 31 -35
41 -34 83 3 120 38 38 85 39 124 4z m1324 10 c34 -24 47 -77 28 -114 -8 -17
-24 -35 -34 -41 -52 -27 -124 4 -136 59 -7 33 14 84 42 100 26 15 76 13 100
-4z"/>
<path d="M0 2215 l0 -60 760 -760 760 -760 0 -317 0 -318 40 0 40 0 0 338 0
337 -800 800 -800 800 0 -60z"/>
<path d="M13235 2095 c-69 -38 -95 -80 -95 -158 0 -117 113 -200 222 -162 l43
15 348 -348 c282 -281 347 -351 342 -367 -27 -90 -13 -157 45 -209 148 -134
368 60 256 227 -35 51 -91 79 -151 73 -27 -2 -59 -7 -70 -11 -16 -5 -85 59
-369 343 -316 317 -347 351 -337 370 6 11 11 45 11 75 0 59 -23 104 -72 140
-37 28 -132 34 -173 12z m136 -94 c59 -60 22 -151 -63 -151 -85 0 -122 100
-57 154 41 35 83 34 120 -3z m938 -937 c77 -64 6 -186 -89 -153 -67 24 -77
123 -17 159 43 27 69 25 106 -6z"/>
<path d="M14178 1881 c-142 -46 -161 -248 -29 -318 24 -13 60 -23 80 -23 70 1
141 49 164 113 6 16 46 17 634 17 994 1 913 4 945 -27 l28 -27 0 62 c0 51 -3
63 -20 72 -13 7 -110 11 -278 10 -141 -1 -492 -1 -779 -1 l-522 1 -17 36 c-32
68 -132 108 -206 85z m120 -107 c64 -73 -20 -184 -107 -140 -35 19 -51 44 -51
81 0 84 102 122 158 59z"/>
<path d="M11486 1865 c-45 -16 -90 -56 -106 -96 l-12 -29 -1363 0 -1362 0
-265 -265 -265 -265 -1582 0 -1581 0 -20 39 c-29 58 -72 85 -145 89 -70 4
-105 -14 -151 -73 -52 -69 -30 -191 43 -236 99 -61 211 -33 257 66 l17 35
1598 0 1598 0 265 265 266 265 1345 0 1346 0 23 -42 c42 -77 152 -112 227 -73
63 32 109 122 95 182 -16 67 -44 104 -97 129 -59 27 -77 29 -131 9z m119 -100
c54 -53 11 -155 -65 -155 -40 0 -90 47 -90 85 0 30 16 65 39 82 28 22 89 16
116 -12z m-6764 -534 c37 -37 38 -79 3 -120 -20 -25 -34 -31 -64 -31 -57 0
-90 31 -90 84 0 90 89 129 151 67z"/>
<path d="M2943 1789 c-64 -19 -123 -103 -123 -174 1 -37 38 -102 75 -130 80
-62 206 -35 250 53 l20 41 498 1 497 0 11 -27 c15 -40 38 -63 84 -84 79 -36
167 -14 216 54 54 74 32 199 -43 245 -77 47 -164 37 -221 -27 -19 -21 -38 -48
-42 -60 -6 -21 -6 -21 -501 -21 -462 0 -495 1 -501 18 -13 38 -58 85 -97 103
-45 20 -74 22 -123 8z m92 -85 c39 -18 60 -60 50 -102 -8 -39 -34 -61 -77 -68
-49 -8 -98 33 -98 83 0 46 15 72 53 88 40 18 33 18 72 -1z m1330 2 c63 -27 75
-97 25 -148 -27 -26 -36 -30 -68 -25 -93 15 -113 136 -29 172 40 18 32 17 72
1z"/>
<path d="M0 1675 l0 -60 495 -495 495 -495 0 -312 0 -313 40 0 40 0 0 333 0
332 -535 535 -535 535 0 -60z"/>
<path d="M10125 1461 c-42 -19 -89 -66 -100 -101 -6 -20 -15 -20 -533 -20
l-527 0 -265 -265 -265 -265 -2372 0 c-2101 0 -2373 2 -2373 15 0 22 -66 91
-100 105 -44 18 -130 8 -170 -20 -18 -13 -41 -41 -51 -64 -81 -178 133 -334
275 -200 19 18 38 45 42 59 l6 25 2392 0 2391 0 265 265 265 265 507 0 c491 0
507 -1 513 -19 21 -67 102 -115 181 -109 94 8 154 73 154 168 0 83 -48 148
-125 169 -53 14 -63 14 -110 -8z m130 -96 c54 -53 11 -155 -65 -155 -45 0 -90
47 -90 95 0 51 36 85 90 85 30 0 47 -6 65 -25z m-6678 -520 c49 -34 50 -115 1
-149 -58 -41 -133 -6 -145 67 -5 31 -1 40 25 67 34 34 83 40 119 15z"/>
<path d="M14725 1351 c-48 -12 -84 -40 -112 -88 -65 -112 20 -253 152 -253 25
0 59 7 74 14 34 18 91 81 91 101 0 13 68 15 507 15 l507 0 28 -27 29 -28 -3
65 -3 65 -530 3 -530 3 -21 42 c-31 64 -119 105 -189 88z m91 -96 c34 -23 49
-69 34 -105 -26 -62 -92 -79 -145 -36 -62 50 -25 156 55 156 19 0 45 -7 56
-15z"/>
<path d="M0 1145 l0 -61 230 -229 230 -229 0 -313 0 -313 40 0 39 0 0 332 0
333 -269 270 -270 270 0 -60z"/>
<path d="M9350 954 c-73 -32 -110 -86 -110 -161 1 -133 140 -215 255 -150 34
19 76 66 87 97 3 9 132 11 683 10 l310 -1 17 -37 c23 -49 76 -84 138 -90 62
-6 100 9 144 58 60 67 57 166 -7 234 -80 85 -217 64 -275 -42 l-23 -42 -494 0
-493 0 -12 29 c-18 43 -64 86 -108 99 -50 15 -69 15 -112 -4z m125 -99 c54
-53 11 -155 -65 -155 -44 0 -90 47 -90 93 0 78 99 118 155 62z m1316 15 c10
-6 26 -24 34 -41 47 -89 -83 -173 -151 -98 -30 33 -25 96 9 125 30 25 75 31
108 14z"/>
<path d="M15729 917 c-18 -12 -44 -38 -57 -57 -20 -30 -23 -44 -20 -97 5 -74
25 -107 86 -141 l42 -23 0 -300 0 -299 40 0 40 0 0 305 c0 294 1 305 19 305
11 0 34 12 52 27 94 79 74 234 -38 292 -39 20 -126 14 -164 -12z m153 -84 c48
-46 36 -116 -24 -143 -48 -21 -71 -17 -103 22 -32 38 -32 78 1 117 34 41 86
43 126 4z"/>
<path d="M15003 750 c-83 -18 -143 -88 -143 -168 0 -75 39 -137 103 -161 l27
-11 0 -205 0 -205 40 0 40 0 0 205 0 205 24 6 c33 8 92 72 106 117 37 116 -77
242 -197 217z m77 -97 c35 -24 40 -33 40 -76 0 -84 -100 -120 -154 -56 -35 41
-34 83 3 120 34 33 74 38 111 12z"/>
<path d="M12528 618 c-101 -50 -132 -134 -84 -232 22 -44 36 -59 71 -76 l45
-22 0 -144 0 -144 40 0 40 0 0 149 c0 139 1 150 19 156 91 29 132 152 81 244
-46 80 -131 108 -212 69z m106 -68 c39 -15 59 -62 46 -110 -19 -72 -91 -93
-149 -44 -38 32 -41 73 -8 121 29 42 62 52 111 33z"/>
<path d="M5828 588 c-68 -18 -128 -99 -128 -171 0 -10 7 -34 15 -54 l16 -37
-163 -163 -163 -163 61 0 60 0 133 135 c112 112 137 133 152 125 28 -16 107
-12 146 7 21 9 48 36 65 62 26 40 29 53 26 103 -8 114 -110 187 -220 156z
m116 -109 c35 -41 34 -83 -3 -120 -60 -60 -151 -23 -151 61 0 56 34 90 89 90
32 0 44 -6 65 -31z"/>
<path d="M3759 431 c-46 -15 -69 -32 -99 -73 -53 -73 -37 -177 36 -233 34 -26
47 -30 105 -30 57 0 71 4 103 28 20 16 45 44 53 63 l17 34 495 0 496 -1 21
-42 c57 -116 243 -115 301 3 38 76 12 182 -54 225 -87 57 -207 26 -253 -66
l-20 -39 -494 0 -494 0 -12 30 c-17 41 -71 87 -117 99 -43 12 -48 12 -84 2z
m105 -106 c39 -36 37 -94 -5 -129 -41 -35 -83 -34 -120 3 -84 84 37 208 125
126z m1318 14 c55 -29 53 -125 -3 -154 -53 -28 -98 -15 -125 36 -40 79 48 161
128 118z"/>
<path d="M9788 360 c-37 -20 -88 -77 -88 -98 0 -14 128 -13 -1444 -12 l-1199
1 -126 -126 -126 -125 55 0 55 0 80 80 80 79 1170 1 c1600 1 1455 3 1455 -15
0 -26 73 -92 117 -105 127 -38 252 84 214 210 -15 52 -47 89 -95 111 -52 24
-101 23 -148 -1z m142 -95 c54 -54 13 -149 -66 -149 -29 0 -43 7 -65 32 -33
37 -36 62 -12 102 32 55 96 62 143 15z"/>
<path d="M13975 366 c-85 -38 -125 -135 -94 -225 11 -32 10 -35 -42 -87 l-53
-54 54 0 c45 0 59 5 81 26 25 24 31 25 60 15 46 -16 88 -13 135 8 97 44 131
163 71 252 -46 68 -140 97 -212 65z m133 -100 c68 -67 -11 -182 -100 -145 -30
12 -58 55 -58 86 1 27 24 64 51 79 31 18 78 9 107 -20z"/>
</g>
</svg>
